<?xml version="1.0" encoding="utf-8"?>
<!-- Generator: Adobe Illustrator 25.2.1, SVG Export Plug-In . SVG Version: 6.00 Build 0)  -->
<svg version="1.1" id="Capa_1" xmlns="http://www.w3.org/2000/svg" xmlns:xlink="http://www.w3.org/1999/xlink" x="0px" y="0px"
	 viewBox="0 0 153.8 153.6" style="enable-background:new 0 0 153.8 153.6;" xml:space="preserve">
<style type="text/css">
	.st0{fill:#414042;}
</style>
<path class="st0" d="M153.7,23.1v88.3c-0.1,0.1-0.2,0.2-0.2,0.4c-1.2,5.4-6.1,9.1-12.4,9c-13-0.1-26-0.1-39-0.1h-1.8v16.5
	c2.3,0,4.4,0,6.6,0c4.3,0.1,7.7,2.9,8.1,7.1c0.2,3.1,0.2,6.2,0.1,9.3H38.5c0-2.6,0-5,0-7.5c-0.3-4.7,3.2-8.7,7.9-9c0.3,0,0.7,0,1,0
	c2,0.1,4,0,6,0v-16.5h-1.8c-13.2,0-26.4,0-39.6,0C5,120.7,0,115.9,0,109.1c0-28,0-56,0-83.9c0-1.6,0.4-3.2,1-4.6
	c1.1-2.8,3.4-4.9,6.2-5.9l1.6,4.2c-3.2,1.7-4.4,4.2-4.3,7.6c0,21.3,0,42.5,0,63.8V92h8.7V0h25.5c0,0.6,0.1,1.3,0.1,1.9v90h7.5V34.5
	c0-3-0.5-6.1,0.2-8.8s2.8-5,4.3-7.5c2.2-3.7,4.5-7.4,6.8-11.3c0.4,0.5,0.7,0.9,0.9,1.4c3.2,5.4,6.5,10.8,9.7,16.2
	c0.5,0.8,0.8,1.8,0.8,2.8c0,20.9,0,41.8,0,62.8v1.8h80.2c0-0.2,0.1-0.4,0.1-0.6c0-22,0-43.9-0.1-65.9c-0.1-1.7-0.7-3.3-1.7-4.6
	c-1.4-2.1-3.8-2.4-6.1-2.4H69.5v-4.5c0.2,0,0.4-0.1,0.5-0.1c24.2,0,48.4,0,72.6,0c2.6,0,5.2,1,7.1,2.7
	C151.9,18.3,152.9,20.7,153.7,23.1z M149.2,96.8H4.5c0,4.3-0.1,8.5,0,12.7c-0.1,2.7,1.6,5.1,4.2,6.1c1.3,0.4,2.7,0.6,4.1,0.6
	c42.7,0,85.4,0,128.1,0c0.6,0,1.1,0,1.6,0c3.9-0.4,6.5-2.8,6.6-6.6C149.3,105.3,149.2,101.1,149.2,96.8z M28.7,28v4.5H17.9V37h6v4.6
	h-6v4.5h10.8v4.5H17.9v4.5h6v4.6h-6V64h10.8v4.6H17.9v4.5h6v4.5h-6v4.5h10.8v4.7H17.9v5.1h16.3V4.6H17.9v5.3h10.8v4.6H17.9V19h6v4.5
	h-6V28H28.7z M58.2,137.1h37.4v-16.3H58.2V137.1z M64.2,30.4c-2,1.2-3.8,2.2-5.5,3.3c-0.7,0.5-1.6,0.5-2.3,0
	c-1.7-1.1-3.5-2.1-5.5-3.3v49.3h13.2V30.4z M43.1,149.1h67.6v-2.3c0-3.8-1.3-5.1-5-5.1H56.3c-3.1,0-6.2,0-9.3,0
	c-2.1-0.1-3.8,1.5-3.9,3.6c0,0,0,0,0,0C43,146.5,43.1,147.8,43.1,149.1z M51,91.9h13.2v-7.2H51V91.9z M51.7,25.5
	c1.9,1.1,3.6,2.2,5.3,3.2c0.3,0.2,0.6,0.2,0.9,0.1c1.8-1,3.7-2.2,5.6-3.3c-2-3.3-3.9-6.5-5.9-9.8L51.7,25.5z"/>
<path class="st0" d="M144.7,22.9v25.4H92.1V22.9H144.7z M96.7,27.5v16.3h43.3V27.5H96.7z"/>
<path class="st0" d="M78,27.4h-4.3v-4.5H87v4.4h-4.3V83H87v4.5H73.7V83H78V27.4z"/>
<path class="st0" d="M116.1,53v16.5c-0.5,0-1,0.1-1.5,0.1c-7,0-14,0-21,0c-1.2,0-1.6-0.3-1.6-1.6c0.1-4.5,0-9,0-13.5
	c0-0.5,0.1-1,0.1-1.5L116.1,53z M96.8,57.5v7.3h14.8c0-2.2,0-4.4,0-6.5c0-0.3-0.6-0.8-0.9-0.8C106,57.5,101.5,57.5,96.8,57.5z"/>
<path class="st0" d="M120.7,69.4V53h23.8v16.5H120.7z M140.1,64.8v-7.2h-14.8v7.2H140.1z"/>
<path class="st0" d="M133.4,75.6V80H123v-4.4H133.4z"/>
<path class="st0" d="M104.8,75.6V80H94.4v-4.4H104.8z"/>
<path class="st0" d="M138,75.6c0.4-0.1,0.7-0.1,1.1-0.1c4.1,0.1,3.3-0.8,3.4,3.6c0,0.7-0.2,1.1-1,1.1c-1.1,0-2.3,0-3.5,0L138,75.6z"
	/>
<path class="st0" d="M109.4,80v-4.4h4.4V80H109.4z"/>
<path class="st0" d="M70.2,108.6h-4.6c0-1.3-0.3-2.7,0.1-3.8c0.6-1.5,2.2-0.5,3.3-0.6c0.4,0,1.2,0.4,1.2,0.8
	C70.2,106.1,70.2,107.4,70.2,108.6z"/>
<path class="st0" d="M88.1,108.6h-4.4v-4.4h4.4V108.6z"/>
<path class="st0" d="M74.7,104.2h4.4v4.4h-4.4V104.2z"/>
<path class="st0" d="M59.8,54.3h-4.4V39.4h4.4V54.3z"/>
<path class="st0" d="M59.8,75.3h-4.4v-7.4h4.4V75.3z"/>
<path class="st0" d="M59.8,58.9v4.3h-4.4v-4.3H59.8z"/>
</svg>
