<?xml version="1.0" encoding="utf-8"?>
<!-- Generator: Adobe Illustrator 25.2.1, SVG Export Plug-In . SVG Version: 6.00 Build 0)  -->
<svg version="1.1" id="Capa_1" xmlns="http://www.w3.org/2000/svg" xmlns:xlink="http://www.w3.org/1999/xlink" x="0px" y="0px"
	 viewBox="0 0 139.7 139.6" style="enable-background:new 0 0 139.7 139.6;" xml:space="preserve">
<style type="text/css">
	.st0{fill:#414042;}
</style>
<path class="st0" d="M11.3,112.7V11.5c-0.2-5.6,3.8-10.4,9.3-11.4C21.3,0,22,0,22.7,0C39.2,0,55.6,0,72,0
	c6.2-0.1,11.3,4.8,11.4,10.9c0,0.2,0,0.3,0,0.5c0,13.6,0,27.2,0,40.8v1.7c0.5-0.2,0.9-0.3,1.2-0.5c19-9.3,41.9-1.4,51.1,17.6
	s1.4,41.9-17.6,51.1c-1.4,0.7-2.9,1.3-4.5,1.8c-0.8,0.2-1.4,0.9-1.5,1.7c-1.9,8.2-9.2,14-17.6,13.9H14.1c-7.4,0-13.2-4.9-14-11.9
	S3.9,114.5,11.3,112.7z M16.2,117.1c-1,0-1.8,0-2.7,0c-5,0.1-9,4.1-8.9,9.1c0,0.6,0.1,1.3,0.2,1.9c0.9,4.2,4.6,7,9.3,7h80.1
	c0.8,0,1.7-0.1,2.5-0.2c7.3-1.1,12.4-7.9,11.3-15.2c-0.9-5.8-5.5-10.4-11.3-11.3c-1.4-0.2-2.9-0.3-4.3-0.4
	c-0.8-14.4-7.3-23.2-19.1-26.2C61,79,48.5,85.7,44.1,97.5C29.9,88.3,12.6,101.4,16.2,117.1z M78.8,36v-1.4c0-7.5,0-15,0-22.5
	c0-4.8-2.8-7.6-7.6-7.6H23.4c-4.8,0-7.6,2.8-7.6,7.6c0,7.5,0,15,0,22.5c0,0.4,0,0.9,0.1,1.4L78.8,36z M78.8,40.6h-63v31.4h49.8
	c0.3,0,0.8-0.1,0.9-0.3c0.8-1.3,1.5-2.7,2.3-4.2h-1.9c-13.9,0-27.9,0-41.8,0c-2.4,0.2-4.6-1.6-4.8-4c0-0.3,0-0.5,0-0.8
	c0-4.3,0-8.7,0-13c-0.2-2.5,1.7-4.6,4.1-4.7c0.2,0,0.4,0,0.6,0h44.6c2.4-0.2,4.5,1.7,4.7,4.1c0,0.2,0,0.4,0,0.6c0,3.2,0,6.5,0,9.7
	c0,0.3,0.1,0.7,0.1,1.1c1.3-1.1,2.6-2.1,3.8-3.2c0.3-0.3,0.5-0.7,0.6-1.2C78.9,51,78.8,45.9,78.8,40.6z M69.8,49.6H24.9V63h44.9
	L69.8,49.6z M115.5,72.2c-0.3-0.1-0.5-0.1-0.8-0.2c-8.8,0-17.5,0-26.3,0c-0.8,0-1,0.4-1.1,1.1c-0.4,2.6-0.9,5.3-1.3,7.9
	c-0.2,2.3,1.5,4.4,3.8,4.6c0.1,0,0.1,0,0.2,0h25.6c0.4,0,0.9,0,1.7-0.1C116.7,81,116.1,76.5,115.5,72.2L115.5,72.2z M96.8,103.6
	h15.3c3.2,0,3.3,0,3.8-3.1c0.6-3.4,0.9-6.8,1.3-10.3H92.3C94.9,94.2,96.4,98.8,96.8,103.6z M15.9,98.7c1.4-1.3,2.8-2.6,4-3.9
	c0.3-0.4,0.4-0.8,0.4-1.2c0-2.5,0-5.1,0-7.6c0-3.2,1.8-5,4.9-5h25.7c0.5,0.1,1,0,1.5-0.2c3.6-2.1,7.6-3.6,11.8-4.2H15.9V98.7z
	 M113.8,67.5c-1.5-4-3.2-7.5-6.1-10.4c-4.1-4.1-8.6-4.1-12.7-0.1c-2.6,2.7-4.6,6-5.8,9.6c-0.1,0.3-0.2,0.6-0.2,0.9L113.8,67.5z
	 M120.2,72.1c0.6,4.6,1.1,9,1.7,13.4H135c-0.2-4.5-1.4-9-3.5-13c-0.2-0.3-0.4-0.4-0.8-0.5C127.2,72,123.6,72.1,120.2,72.1
	L120.2,72.1z M121.8,90.1c-0.6,4.5-1.2,8.9-1.7,13.4c3.5,0,7,0,10.5,0c0.4,0,0.7-0.2,0.9-0.5c2.1-4,3.3-8.4,3.5-12.9L121.8,90.1z
	 M46.2,85.7H24.9v6.2c5.4-2.3,11.5-2.4,17-0.4L46.2,85.7z M69.8,76.2l11.7,3.4c0.4-2.3,0.8-4.9,1.3-7.5h-7.2
	C71,72.1,71,72.1,69.8,76.2L69.8,76.2z M118.9,108.2c-1.9,3.8-3.6,7.4-5.4,11.1c5.9-2.3,11-6.1,14.8-11.1H118.9z M74.4,67.6
	c3.2,0,6,0,8.9,0c0.3,0,0.8-0.5,1-0.8c0.8-1.7,1.4-3.6,2.2-5.3s1.9-3.3,3-5.2C83.6,58.5,78.3,62.5,74.4,67.6L74.4,67.6z M113.5,56.4
	l5.4,11.1h9.3C124.5,62.5,119.4,58.6,113.5,56.4z M111.3,114l2.6-5.8H107L111.3,114z"/>
<path class="st0" d="M128.7,20.3H92.5v-4.5h35.8l0.1-0.3l-5.9-4.7l2.8-3.6L138.9,18l-13.5,10.8l-2.9-3.5L128.7,20.3z"/>
<path class="st0" d="M88.8,36l13.5-10.8l2.8,3.6l-6.2,5h36.2v4.5H99.3l-0.1,0.3l5.9,4.8l-2.8,3.5L88.8,36z"/>
<path class="st0" d="M67.7,90.1v-4.3c10.8-0.8,22,10,20,22.6l-4.3-0.6c0.5-4.5-0.9-8.9-3.9-12.3C76.5,92.1,72.2,90.1,67.7,90.1z"/>
<path class="st0" d="M49.6,119.4c0,3.7-3.1,6.7-6.8,6.7c-3.7,0-6.7-3.1-6.7-6.8c0-3.7,3-6.7,6.8-6.7c3.7,0,6.7,3,6.7,6.7
	C49.6,119.3,49.6,119.4,49.6,119.4z M42.8,121.6c1.2,0,2.2-1,2.3-2.2c0-1.2-1-2.2-2.2-2.2c-1.2,0-2.2,1-2.2,2.2
	C40.7,120.6,41.7,121.5,42.8,121.6z"/>
<path class="st0" d="M60.8,112.6c3.7,0,6.8,3,6.8,6.7c0,3.7-3,6.8-6.7,6.8c-3.7,0-6.7-3-6.8-6.7c-0.1-3.7,2.9-6.8,6.6-6.8
	C60.8,112.6,60.8,112.6,60.8,112.6z M58.7,119.2c-0.1,1.2,0.9,2.3,2.1,2.3s2.3-0.9,2.3-2.1c0.1-1.2-0.9-2.3-2.1-2.3
	C59.8,117.1,58.7,118,58.7,119.2L58.7,119.2z"/>
<path class="st0" d="M78.8,126.1c-3.7,0-6.7-3.1-6.7-6.8s3.1-6.7,6.8-6.7c3.7,0,6.7,3,6.7,6.7c0,3.7-3,6.7-6.7,6.8
	C78.9,126.1,78.9,126.1,78.8,126.1z M78.8,117.1c-1.2,0.1-2.2,1.1-2.2,2.3c0,1.2,1.1,2.2,2.3,2.2s2.2-1.1,2.2-2.3
	S80.1,117.1,78.8,117.1C78.9,117.1,78.9,117.1,78.8,117.1z"/>
<path class="st0" d="M33.8,99.1v4.4c-7.8,1-10.3,7.6-8.2,12.8l-4.1,1.8c-1.8-3.9-1.6-8.3,0.6-12C24.6,101.6,28.5,99.3,33.8,99.1z"/>
<path class="st0" d="M57.7,88l4.8-1.9l1.2,4.4L60,92L57.7,88z"/>
<path class="st0" d="M47.3,9c7.3,0,14.7,0,22,0c3.3,0,5.1,1.7,5.1,5v12.6c0,3-1.8,4.8-4.8,4.8H25.1c-2.4,0.2-4.6-1.6-4.8-4.1
	c0-0.2,0-0.4,0-0.6c0-4.4,0-8.7,0-13.1C20.2,11.3,22,9.2,24.5,9c0.2,0,0.4,0,0.6,0C32.5,9,39.9,9,47.3,9z M24.9,26.9h44.9V13.6H24.9
	V26.9z"/>
<path class="st0" d="M56.3,54.1v4.3h-4.3v-4.3H56.3z"/>
<path class="st0" d="M65.3,54.1v4.3H61v-4.3H65.3z"/>
<path class="st0" d="M33.8,18.1v4.3h-4.4v-4.3H33.8z"/>
<path class="st0" d="M38.4,22.4v-4.3h4.4v4.3H38.4z"/>
</svg>
