<?xml version="1.0" encoding="utf-8"?>
<!-- Generator: Adobe Illustrator 25.2.1, SVG Export Plug-In . SVG Version: 6.00 Build 0)  -->
<svg version="1.1" id="Capa_1" xmlns="http://www.w3.org/2000/svg" xmlns:xlink="http://www.w3.org/1999/xlink" x="0px" y="0px"
	 viewBox="0 0 120.3 139.6" style="enable-background:new 0 0 120.3 139.6;" xml:space="preserve">
<style type="text/css">
	.st0{fill:#414042;}
</style>
<path class="st0" d="M76.6,139.6h-4.5v-4.7c-3.6-0.9-5.5-3.4-7.1-6.4c-1.5-2.8-3.1-5.4-4.7-8.2c-1.8-3.1-1.5-6.2,0.8-8.3
	c2.3-2.1,5.8-2.2,8.3-0.3c0.1,0,0.2,0,0.4,0.1v-5.8H42.9v5.5c1.4-0.5,2.8-0.9,4.3-1.1c3.4-0.1,6.2,2.6,6.3,5.9
	c0,1.1-0.2,2.1-0.7,3.1c-2.1,3.9-4.4,7.8-6.7,11.6c-1.1,1.8-2.5,2.8-5.5,4v4.6h-4.4c0-2.4-0.1-4.7,0-7.1c0.1-1,1-1.8,2-1.8
	c2-0.1,3.8-1.3,4.7-3.1c1.8-3.2,3.6-6.4,5.5-9.5c0.6-1,1-2-0.1-2.9s-1.9-0.2-2.7,0.6c-1,1-2.1,2-3.3,2.8c-0.8,0.5-1.7,0.6-2.6,0.5
	c-1.1-0.2-1.4-1.2-1.4-2.3c0-5.4,0-10.7,0-16.1v-0.8c0-0.9,0-1.9-1.1-1.9s-1.1,1-1.1,1.9v10.3h-4.5v-15c0-0.9-0.1-1.7-1.2-1.7
	s-1,0.9-1,1.7c0,4.5,0,9,0,13.5v1.5h-4.6v-2c0-2.9,0-5.7,0-8.6c0-0.8-0.1-1.6-1.1-1.6s-1.1,0.8-1.1,1.6c0,3.5,0,7,0,10.6H18v-5.3
	c0-0.4,0.1-0.9,0-1.2c-0.3-0.4-0.7-0.8-1.1-1.2c-0.3,0.4-1,0.8-1,1.3c-0.1,1.6,0,3.2,0,4.8c0,4.3,0,8.5,0,12.8
	c-0.1,3.7,1.8,7.3,5.1,9.2c1.2,0.6,1.8,1.8,1.7,3.1c-0.1,2,0,3.9,0,6h-4.5c0-1.5,0.1-3,0-4.4c-0.1-0.6-0.3-1.1-0.7-1.5
	c-3.9-2.9-6.1-7.5-6-12.3c0-5.1,0-10.2,0-15.6H2.8c-2.2,0-3.2-1.5-2.3-3.5c2-4.5,3.8-9.1,6-13.4c1.9-4,2.8-8.3,2.6-12.7
	C8.9,58.6,9,40.9,9,23.3c0-2.4,0.7-3,3-3h66.8v4.4H13.6V81H99V60.9h4.6v1.4c0,6.3,0,12.6,0,18.9c0,1.1,0.2,2.1,0.7,3.1
	c2.6,5.9,5.2,11.8,7.8,17.7c1.1,2.5,0.2,3.8-2.4,3.8h-8.3v1.6c0,4.8,0,9.6,0,14.4c0,4.5-2.1,8.8-5.8,11.5c-0.7,0.5-1.2,1.3-1.1,2.2
	c0.1,1.3,0,2.6,0,4h-4.4c0-2.4-0.1-4.8,0.1-7.1c0.2-0.7,0.7-1.3,1.3-1.7c3.5-2,5.6-5.8,5.4-9.9c0-5.5,0-11.1,0-16.6
	c0-0.8,0-1.8-1.1-1.8s-1.1,0.9-1.1,1.7v6h-4.5v-9.5c0.1-0.5,0.1-1,0-1.5c-0.2-0.4-0.6-0.8-1-1.2c-0.4,0.4-1.1,0.7-1.1,1.1
	c-0.1,1.2-0.1,2.3-0.1,3.5c0,2.5,0,5,0,7.6h-4.5v-1.5c0-4.4,0-8.7,0-13.1c0-0.9,0.3-2.2-1.1-2.2s-1.1,1.2-1.2,2.1
	c0,4.8,0,9.7,0,14.6h-4.5v-8.4c0.1-0.9,0.1-1.8,0-2.7c-0.1-0.4-0.7-0.8-1.1-1.2c-0.4,0.3-0.7,0.7-1,1.1c-0.1,0.4-0.1,0.7,0,1.1
	c0,5.4,0,10.8,0,16.2c0,1.1-0.1,2.2-1.3,2.7s-2.2,0-3-0.8c-1.1-1-2.2-2-3.4-3c-0.7-0.6-1.6-0.9-2.2-0.1c-0.5,0.6-0.6,1.4-0.5,2.1
	c2.1,3.8,4.3,7.6,6.5,11.3c0.9,1.2,2.2,2,3.7,2c1.7,0.2,2.3,0.9,2.3,2.6C76.6,135.2,76.6,137.3,76.6,139.6z M69.8,101.3
	c0-0.8,0-1.6,0-2.2c0-3,2.4-5.5,5.5-5.6c0.1,0,0.1,0,0.2,0c0.7,0.1,1.4-0.4,1.6-1.1c0.8-2.1,2.9-3.5,5.2-3.4c2.3,0,4.3,1.3,5.2,3.4
	c0.2,0.3,0.3,0.7,0.4,1.1c3.5-0.3,5.6,1.3,6.7,4.4c3.7,0.2,4,0.4,6.1,3c0.2,0.2,0.4,0.4,0.6,0.4c1.8,0,3.5,0,5.5,0l-7-15.7
	c-0.2,0-0.4,0-0.6,0c-28.5,0-57,0-85.5,0c-0.7-0.1-1.3,0.4-1.4,1c-2,4.6-4.1,9.2-6.1,13.7c-0.1,0.3-0.2,0.7-0.3,1.1
	c1.8,0,3.5,0,5.1,0c0.3,0,0.6-0.1,0.8-0.3c1.4-2.4,3.5-3.2,6.2-3c0.7-3,3.7-5,6.7-4.5c0.1-0.3,0.2-0.5,0.3-0.7
	c0.7-2.3,2.8-3.8,5.2-3.8c2.4-0.1,4.6,1.4,5.4,3.7c0.3,0.8,0.7,0.8,1.4,0.8c3.1-0.1,5.7,2.3,5.8,5.4c0,0.1,0,0.2,0,0.3
	c0,0.7,0,1.4,0,2.1L69.8,101.3z"/>
<path class="st0" d="M92.4,43.2c0.5-2.5-0.4-4.2-2.5-5.9c-5.7-4.8-7.4-12.8-4.3-19.6c3.8-8.7,13.8-12.6,22.5-8.8
	c4.8,2.1,8.4,6.3,9.7,11.3c1.8,6.8-0.7,14-6.4,18.2c-0.8,0.5-1.3,1.4-1.2,2.4c0.1,1.8,0.1,3.6,0,5.3c0.1,4.9-3.8,9-8.7,9.1
	c-4.9,0.1-9-3.8-9.1-8.7c0-0.2,0-0.4,0-0.6C92.4,45.1,92.4,44.2,92.4,43.2z M105.6,38.9c-0.3-1.9,0.9-2.8,2.3-3.6
	c4.4-2.7,6.7-7.9,5.7-13c-1.2-6.8-7.8-11.3-14.6-10.1c-4.6,0.8-8.4,4.2-9.7,8.7c-1.8,5.4,0.4,11.4,5.2,14.3c1.4,0.9,2.7,1.7,2.4,3.7
	L105.6,38.9z M105.6,43.7h-8.5C97,46,96.7,48.3,99,49.8c1.4,1,3.3,1,4.8,0C106,48.3,105.7,46,105.6,43.7z"/>
<path class="st0" d="M45,61.6c-3.7-2.2-7.4-4.4-11-6.6c-1.9-1.2-1.9-3.1,0-4.2c3.6-2.2,7.2-4.3,11-6.6l2.3,3.9l-8,4.8l8,4.8L45,61.6
	z"/>
<path class="st0" d="M67.6,61.6l-2.3-3.9l8-4.8l-8-4.8l2.3-3.8l7.5,4.4c1.2,0.7,2.3,1.4,3.5,2.1c1.9,1.2,1.9,3.1,0,4.2
	C75,57.2,71.3,59.3,67.6,61.6z"/>
<path class="st0" d="M57.5,43.1l4.3,1.6l-6.8,18l-4.3-1.6C53,55.1,55.2,49.2,57.5,43.1z"/>
<path class="st0" d="M99.2,0h4.3v4.9h-4.3V0z"/>
<path class="st0" d="M85.6,12.1l-3.2-3.3l3.2-3l3.2,3.3L85.6,12.1z"/>
<path class="st0" d="M117.4,5.8l2.9,3l-3.6,3.3l-2.8-2.9L117.4,5.8z"/>
</svg>
