<?xml version="1.0" encoding="UTF-8"?> <!-- Generator: Adobe Illustrator 23.0.5, SVG Export Plug-In . SVG Version: 6.00 Build 0) --> <svg xmlns="http://www.w3.org/2000/svg" xmlns:xlink="http://www.w3.org/1999/xlink" version="1.1" id="Capa_1" x="0px" y="0px" viewBox="0 0 79.37 28.35" style="enable-background:new 0 0 79.37 28.35;" xml:space="preserve"> <style type="text/css"> .st0{fill:#FFFFFF;} .st1{fill:none;} </style> <g> <g id="XMLID_2_"> <g> <path class="st0" d="M17.98,6.25v13.94l-3.43,0.3l0.1,0.62l-0.89-0.56c-2.19-1.39-3.55-3.92-3.55-6.6c0-4.24,3.27-7.69,7.3-7.69 H17.98z M17.04,19.32V7.22c-3.28,0.26-5.88,3.18-5.88,6.73c0,2.26,1.09,4.39,2.87,5.64L17.04,19.32z"></path> </g> </g> </g> <g> <path class="st1" d="M21.08,11.51c-0.01,0-0.02,0.01-0.03,0.02c0.03,0.09,0.06,0.17,0.08,0.26c0.01,0.02,0.01,0.04,0.02,0.05 l0.64-0.14C21.55,11.64,21.31,11.57,21.08,11.51C21.08,11.51,21.08,11.51,21.08,11.51z"></path> </g> <g> <path class="st1" d="M23.02,15.74c0-0.02,0-0.04,0.01-0.06c0.01-0.09,0.01-0.18,0.03-0.27c0-0.01,0-0.01,0-0.01 c0,0-0.01,0-0.02-0.01c-0.18-0.08-0.37-0.16-0.54-0.24c-0.03-0.01-0.05-0.02-0.08-0.03l0.56,0.65L23.02,15.74z"></path> </g> <g> <path class="st1" d="M23.34,11.84c0-0.02,0-0.04,0-0.06c0-0.03,0-0.07,0.01-0.1c0-0.03-0.01-0.06-0.03-0.08 c-0.02-0.02-0.05-0.02-0.08-0.02c-0.11,0.02-0.23,0.05-0.34,0.07c-0.11,0.02-0.21,0.05-0.32,0.07l0.75,0.2 C23.33,11.89,23.34,11.87,23.34,11.84z"></path> </g> <g> <path class="st1" d="M23.27,12.7c0.02-0.17,0.03-0.35,0.05-0.54c0-0.02,0-0.03,0-0.05l-0.16-0.04c-0.31-0.08-0.63-0.17-0.95-0.26 c-0.01,0-0.02,0-0.03,0c-0.28,0.06-0.56,0.12-0.85,0.19l-0.12,0.03c0.13,0.41,0.27,0.82,0.4,1.23c0.05,0.14,0.09,0.29,0.14,0.43 c0.09,0.29,0.19,0.59,0.29,0.89c0,0,0,0.01,0.01,0.02c0,0,0,0,0.01,0c0.02,0,0.04,0,0.05,0.01l0.12-0.19 c0.34-0.54,0.68-1.09,1.02-1.63C23.26,12.75,23.27,12.73,23.27,12.7z"></path> </g> <g> <path class="st1" d="M21.85,9.34c-0.01,0-0.01,0.01-0.02,0.01c-0.01,0.01-0.02,0.03-0.02,0.03c0,0,0,0,0.01,0.01 c0.08,0.09,0.16,0.17,0.23,0.26C21.99,9.55,21.92,9.44,21.85,9.34z"></path> </g> <g> <path class="st1" d="M22.11,15.07c-0.02,0.29-0.05,0.57-0.07,0.84c-0.01,0.11-0.02,0.22-0.02,0.33c0,0.02,0,0.04,0,0.06l0.77-0.25 c0,0,0-0.01,0-0.01c0-0.04,0.01-0.08,0.03-0.12c0.01-0.01,0.01-0.02,0.01-0.02c0,0,0,0-0.01-0.02c-0.14-0.16-0.28-0.32-0.41-0.47 C22.3,15.29,22.21,15.18,22.11,15.07z"></path> </g> <g> <path class="st1" d="M20.02,8.93C19.91,8.92,19.8,8.9,19.7,8.89c-0.27-0.04-0.55-0.08-0.82-0.12c0.25,0.29,0.5,0.59,0.74,0.88 l0.26,0.31c0.05,0.06,0.1,0.12,0.16,0.19l0.17-1.19c0,0-0.01,0-0.01,0C20.12,8.95,20.07,8.94,20.02,8.93z"></path> </g> <g> <path class="st1" d="M20.7,11.34c0-0.01,0.01-0.03,0.02-0.04c0.01-0.02,0.01-0.02-0.02-0.05c0-0.01-0.01-0.01-0.01-0.02 c-0.09-0.11-0.18-0.22-0.27-0.33c-0.08-0.1-0.17-0.2-0.25-0.3l-0.1,0.74H20.7z"></path> </g> <g> <path class="st1" d="M20.12,12.07C20.12,12.07,20.12,12.07,20.12,12.07c0.12-0.02,0.2-0.04,0.28-0.06c0.01,0,0.03-0.02,0.04-0.03 c0.1-0.16,0.2-0.32,0.29-0.47c-0.09,0-0.17,0-0.26,0c-0.06,0-0.12,0-0.18,0c-0.07,0-0.14,0-0.21,0c-0.01,0-0.02,0-0.04,0 l-0.06,0.41c0.01,0.01,0.02,0.02,0.03,0.03C20.05,12,20.08,12.04,20.12,12.07z"></path> </g> <g> <path class="st1" d="M21.21,10.89l-0.08,0.21c-0.01,0.01-0.01,0.03-0.02,0.04c-0.03,0.07-0.05,0.11-0.01,0.16 c0,0.01,0.01,0.01,0.01,0.02c0.01,0.02,0.01,0.02,0.02,0.02c0.14,0.04,0.28,0.08,0.43,0.11c0.19,0.05,0.4,0.11,0.59,0.16 c0.02,0,0.04,0,0.05,0c0.19-0.04,0.38-0.08,0.56-0.12l0.09-0.02c0.09-0.02,0.18-0.04,0.28-0.06l0.07-0.01c0,0,0-0.01,0-0.01 c-0.04-0.05-0.07-0.11-0.11-0.16c-0.12-0.17-0.24-0.35-0.37-0.52c-0.1-0.13-0.21-0.25-0.32-0.37c-0.05-0.05-0.1-0.11-0.15-0.16 l-0.52-0.58C21.56,10.03,21.39,10.46,21.21,10.89z"></path> </g> <g> <path class="st1" d="M20.96,12.08c-0.15,0.03-0.29,0.06-0.44,0.1c0,0-0.02,0.01-0.02,0.02c-0.04,0.05-0.07,0.11-0.11,0.17 c-0.04,0.07-0.09,0.14-0.14,0.22c0,0.01-0.01,0.01-0.01,0.01c0,0,0,0.01,0.01,0.01c0.37,0.43,0.74,0.87,1.1,1.29l0.28,0.33 c0.05,0.06,0.11,0.12,0.16,0.19l-0.77-2.36C21.02,12.07,20.99,12.07,20.96,12.08z"></path> </g> <g> <polygon class="st1" points="21.61,18.08 21.71,18.01 21.82,16.56 19.92,17.18 "></polygon> </g> <g> <path class="st1" d="M19.24,17.05c-0.02,0.05-0.03,0.11-0.04,0.17l0.26-0.08c-0.06-0.03-0.13-0.07-0.19-0.1 C19.25,17.04,19.25,17.05,19.24,17.05z"></path> </g> <g> <path class="st1" d="M21.84,16.33c0.02-0.32,0.05-0.65,0.07-0.97l0.02-0.31c-0.87,0.62-1.75,1.25-2.57,1.84 c0.02,0.01,0.03,0.02,0.05,0.03c0.08,0.04,0.16,0.09,0.24,0.13c0.01,0.01,0.04,0.01,0.05,0c0.38-0.12,0.77-0.25,1.14-0.37 c0.32-0.11,0.64-0.21,0.96-0.31C21.84,16.35,21.84,16.35,21.84,16.33z"></path> </g> <g> <path class="st1" d="M19.44,14.04C19.43,14.04,19.43,14.04,19.44,14.04c-0.01,0-0.02,0.01-0.02,0.03c0,0.07-0.01,0.14-0.01,0.21 c0,0.06-0.01,0.11-0.01,0.17c-0.01,0.24-0.02,0.48-0.04,0.72c-0.01,0.2-0.02,0.41-0.03,0.61l-0.01,0.16 c-0.01,0.26-0.03,0.53-0.04,0.8c0,0,0,0.01,0,0.01c0,0,0,0,0,0c0.44-0.31,0.89-0.63,1.32-0.95l0.06-0.04 c0.28-0.2,0.56-0.4,0.84-0.6l0.33-0.24c-0.01-0.02-0.01-0.03-0.02-0.04c-0.01-0.02-0.02-0.03-0.02-0.03 c-0.78-0.27-1.59-0.54-2.34-0.79C19.45,14.04,19.44,14.04,19.44,14.04z"></path> </g> <g> <path class="st1" d="M19.81,12.55c0,0-0.01,0-0.01,0l-0.26,0.9c0.03-0.04,0.05-0.08,0.08-0.12c0.14-0.22,0.28-0.46,0.42-0.69 c0,0,0,0,0,0c-0.03-0.04-0.06-0.07-0.09-0.1C19.9,12.54,19.85,12.54,19.81,12.55z"></path> </g> <g> <path class="st1" d="M20.89,11.59c-0.05,0.07-0.09,0.14-0.14,0.21c-0.01,0.02-0.03,0.04-0.04,0.06c-0.02,0.03-0.04,0.06-0.06,0.09 l0.33-0.07c0-0.01-0.01-0.02-0.01-0.02C20.95,11.76,20.92,11.68,20.89,11.59z"></path> </g> <g> <path class="st1" d="M20.16,12.26C20.16,12.26,20.16,12.26,20.16,12.26c-0.02,0.05-0.03,0.09-0.05,0.14c0,0.01-0.01,0.02-0.01,0.02 l0.04,0.04l0.15-0.23C20.24,12.24,20.2,12.25,20.16,12.26z"></path> </g> <g> <polygon class="st1" points="20.04,19 20.64,19.47 21.43,18.47 "></polygon> </g> <g> <path class="st1" d="M19.52,13.87C19.52,13.87,19.52,13.87,19.52,13.87l2.2,0.74l-1.57-1.84c-0.24,0.38-0.44,0.7-0.65,1.03 C19.5,13.82,19.51,13.85,19.52,13.87z"></path> </g> <g> <path class="st1" d="M17.91,17.23c0,0,0,0,0.02,0c0.1-0.04,0.18-0.07,0.26-0.09c0.02-0.01,0.03-0.01,0.04-0.05 c0.05-0.18,0.12-0.39,0.19-0.6c0.01-0.02,0-0.02,0-0.02c0,0,0,0-0.02-0.02c-0.23-0.18-0.46-0.36-0.69-0.54v1.08 c0.06,0.07,0.12,0.15,0.18,0.22C17.9,17.23,17.91,17.23,17.91,17.23z"></path> </g> <g> <path class="st1" d="M17.9,17.85c-0.03-0.04-0.05-0.07-0.07-0.12c0,0,0-0.01,0-0.01c0,0-0.01,0-0.01,0c-0.04,0-0.07,0-0.11,0v0.52 l0.2-0.38C17.91,17.86,17.9,17.86,17.9,17.85z"></path> </g> <g> <path class="st1" d="M22.86,16.22c-0.01,0-0.02,0-0.04,0.01c-0.24,0.08-0.51,0.17-0.8,0.26C22,16.5,22,16.5,22,16.52 c0,0.08-0.01,0.17-0.02,0.25c0,0.03,0,0.05-0.01,0.08c-0.02,0.28-0.04,0.57-0.07,0.85l-0.01,0.07L22.86,16.22 C22.86,16.22,22.86,16.22,22.86,16.22z"></path> </g> <g> <path class="st1" d="M21.52,18.24c-0.56-0.3-1.14-0.6-1.69-0.9l-0.13-0.07c-0.01,0-0.01-0.01-0.02-0.01 c-0.01,0-0.02,0.01-0.04,0.01c-0.04,0.01-0.09,0.03-0.13,0.04c-0.11,0.04-0.22,0.07-0.33,0.11c-0.03,0.01-0.03,0.02-0.04,0.04 c-0.04,0.19-0.1,0.43-0.16,0.67c0,0.01,0,0.02,0,0.02l0,0c0,0,0,0,0.01,0.01c0.32,0.25,0.6,0.47,0.87,0.68 c0.01,0.01,0.01,0.01,0.03,0c0.24-0.09,0.48-0.18,0.72-0.27C20.92,18.47,21.22,18.35,21.52,18.24z"></path> </g> <g> <path class="st1" d="M19.17,14.06c-0.28,0.08-0.9,0.27-1.46,0.45v1.16l0.77,0.6L19.17,14.06z"></path> </g> <g> <path class="st1" d="M18.65,19.63c-0.08,0.04-0.16,0.03-0.23-0.02c0,0-0.01,0-0.02,0c-0.19,0.05-0.38,0.11-0.59,0.17l1.11,0.1 L18.65,19.63z"></path> </g> <g> <path class="st1" d="M19.13,13.89c0.02-0.01,0.05-0.04,0.05-0.06c0,0-0.01-0.01-0.01-0.01l-0.18-0.23c-0.2-0.25-0.4-0.51-0.6-0.76 c0,0-0.01-0.01-0.01-0.01c0,0-0.01,0-0.01,0c-0.21,0.07-0.43,0.14-0.66,0.21v1.31c0.35-0.11,0.69-0.22,1.03-0.32L19.13,13.89z"></path> </g> <g> <path class="st1" d="M17.71,19.13v0.49l0.59-0.17C18.1,19.34,17.91,19.24,17.71,19.13z"></path> </g> <g> <path class="st1" d="M18.55,19.22C18.55,19.22,18.55,19.22,18.55,19.22c0.02-0.09,0.04-0.18,0.06-0.26 c0.04-0.19,0.09-0.39,0.15-0.59c0.03-0.11,0.02-0.15-0.07-0.21c-0.1-0.07-0.2-0.14-0.29-0.22c-0.03-0.02-0.05-0.04-0.08-0.06 c-0.07,0.05-0.15,0.07-0.24,0.06l-0.37,0.68v0.28l0.69,0.38L18.55,19.22z"></path> </g> <g> <path class="st1" d="M17.86,17.49c0,0-0.01-0.01-0.01-0.02c-0.02-0.03-0.02-0.04-0.07-0.02c-0.03,0.01-0.05,0.02-0.08,0.03v0.05 c0.01,0,0.02,0,0.02,0C17.82,17.54,17.85,17.53,17.86,17.49z"></path> </g> <g> <path class="st1" d="M18.51,8.35c0.05-0.02,0.1-0.03,0.14-0.04c0.03-0.01,0.07-0.01,0.1-0.02c0.02-0.01,0.05-0.02,0.06-0.04 c0.11-0.15,0.22-0.3,0.32-0.45c0.02-0.03,0.04-0.06,0.07-0.1c-0.08-0.02-0.15-0.05-0.23-0.07c-0.24-0.08-0.49-0.15-0.73-0.24 c-0.16-0.06-0.34-0.1-0.53-0.09v0.84c0.14,0.06,0.27,0.11,0.41,0.17C18.28,8.39,18.39,8.39,18.51,8.35z"></path> </g> <g> <path class="st1" d="M17.95,7.11c0.26-0.02,0.53-0.04,0.79-0.06l-1.02-0.07v0.07c0.06,0.02,0.12,0.04,0.17,0.05 C17.9,7.11,17.92,7.11,17.95,7.11z"></path> </g> <g> <path class="st1" d="M17.99,8.47l-0.28-0.11v0.18c0.02,0,0.04-0.01,0.06-0.01L17.99,8.47z"></path> </g> <g> <path class="st1" d="M18.17,12.55c-0.15-0.19-0.31-0.39-0.46-0.58v0.86l0.54-0.18L18.17,12.55z"></path> </g> <g> <path class="st1" d="M23.74,10.81c0.04,0.32,0.07,0.66,0.11,0.99c0,0.02,0.02,0.05,0.04,0.08c0.01,0.02,0.02,0.03,0.03,0.05 c0.01,0.01,0.02,0.02,0.03,0.04c0.01,0.02,0.03,0.04,0.04,0.06c0.01,0.02,0.02,0.04,0.02,0.06c0.01,0.02,0.01,0.03,0.02,0.05 c0.19,0.31,0.37,0.62,0.58,0.95l-0.92-2.71c0,0.03,0.01,0.06,0.01,0.1C23.71,10.58,23.73,10.7,23.74,10.81z"></path> </g> <g> <path class="st1" d="M18.46,11.4l-0.66-0.47c-0.01,0.03-0.02,0.05-0.03,0.08c-0.02,0.05-0.04,0.09-0.05,0.14v0.28 c0.23,0,0.45-0.01,0.67-0.02L18.46,11.4z"></path> </g> <g> <path class="st1" d="M18.41,12.59c0,0.01,0.01,0.01,0.01,0.01c0,0,0.01,0,0.01,0c0.05-0.02,0.1-0.03,0.15-0.05 c0.02-0.01,0.04-0.01,0.06-0.02l0.87-0.28c0-0.02,0-0.04,0.01-0.07c0-0.01,0-0.01,0-0.01c0-0.01-0.02-0.02-0.04-0.03l0,0 c-0.1-0.07-0.21-0.15-0.31-0.22c-0.15-0.11-0.3-0.21-0.45-0.32c-0.02-0.01-0.05-0.02-0.07-0.02c0,0,0,0,0,0 c-0.33,0.01-0.66,0.02-0.94,0.02v0.11c0.1,0.13,0.2,0.25,0.3,0.38C18.14,12.24,18.28,12.42,18.41,12.59z"></path> </g> <g> <path class="st1" d="M18.39,8.64c-0.05-0.03-0.09-0.04-0.14-0.03c-0.18,0.04-0.36,0.09-0.54,0.13v0.09 c0.05-0.01,0.1-0.03,0.15-0.04C18.05,8.73,18.23,8.68,18.39,8.64z"></path> </g> <g> <polygon class="st1" points="18.42,8.89 18.41,8.89 18.43,8.86 18.44,8.83 17.71,9.03 17.71,10.61 17.72,10.62 "></polygon> </g> <g> <path class="st1" d="M23.58,11.1l-0.01-0.06C23.58,11.06,23.58,11.08,23.58,11.1C23.58,11.1,23.58,11.1,23.58,11.1z"></path> </g> <g> <path class="st1" d="M18.88,18.57c-0.05,0.22-0.11,0.45-0.16,0.68c-0.01,0.02-0.01,0.04,0,0.04l0.96-0.36l-0.74-0.58 C18.91,18.43,18.89,18.5,18.88,18.57z"></path> </g> <g> <path class="st1" d="M19.67,19.86c0.22-0.05,0.44-0.09,0.67-0.13c0.08-0.01,0.14-0.05,0.19-0.11l-0.07-0.06 c-0.2-0.15-0.4-0.31-0.6-0.47c-0.01,0-0.02,0-0.02,0c-0.35,0.13-0.7,0.27-1.06,0.4c-0.01,0-0.01,0.01-0.01,0.01 c0,0,0.01,0.01,0.01,0.01l0.09,0.08c0.12,0.1,0.24,0.21,0.36,0.32l0.17,0.01C19.48,19.9,19.58,19.88,19.67,19.86z"></path> </g> <g> <path d="M19.28,19.94c0.03-0.01,0.07-0.01,0.1-0.02l-0.17-0.01c0.01,0.01,0.02,0.02,0.03,0.03C19.25,19.94,19.27,19.94,19.28,19.94 z"></path> </g> <g> <polygon class="st1" points="20.27,19.93 20.06,19.98 20.22,19.99 "></polygon> </g> <g> <path class="st1" d="M18.83,18.05l0.13-0.55l-0.06,0.02c-0.16,0.05-0.31,0.1-0.46,0.15c-0.01,0.01-0.01,0.04-0.02,0.06 c0.12,0.09,0.23,0.19,0.36,0.28C18.8,18.02,18.81,18.03,18.83,18.05z"></path> </g> <g> <polygon class="st1" points="18.58,16.59 18.43,17.06 18.96,16.89 "></polygon> </g> <g> <path class="st1" d="M19.44,13.13c0.06-0.21,0.12-0.43,0.19-0.65c0-0.01,0-0.01,0-0.01c0,0-0.01-0.01-0.01-0.02l0,0 c-0.02-0.03-0.03-0.04-0.08-0.02c-0.03,0.01-0.06,0.02-0.08,0.03c-0.01,0-0.02,0.01-0.03,0.01c-0.24,0.08-0.48,0.16-0.73,0.23 l-0.14,0.05c0.24,0.31,0.49,0.62,0.74,0.93C19.34,13.5,19.39,13.32,19.44,13.13z"></path> </g> <g> <path class="st1" d="M19,16.69c0.03,0.02,0.05,0.04,0.08,0.06c0.03-0.02,0.03-0.03,0.03-0.06c0.01-0.26,0.02-0.52,0.04-0.77 c0-0.07,0.01-0.14,0.01-0.2c0.01-0.24,0.03-0.48,0.04-0.71c0.01-0.18,0.02-0.36,0.03-0.54c-0.19,0.64-0.39,1.29-0.59,1.93 c0,0,0,0.01,0,0.01C18.76,16.5,18.89,16.6,19,16.69z"></path> </g> <g> <path class="st1" d="M23.09,16.62c-0.01-0.1-0.03-0.2-0.06-0.31c0,0,0,0,0,0c0,0,0,0.01-0.01,0.01l0,0.01 c-0.23,0.37-0.47,0.74-0.7,1.11l-0.09,0.14c0.28-0.31,0.57-0.62,0.85-0.93C23.09,16.64,23.09,16.62,23.09,16.62z"></path> </g> <g> <path class="st1" d="M19.65,11.97c0.05-0.02,0.09-0.04,0.12-0.05c0,0,0,0,0,0c0.02-0.11,0.03-0.23,0.05-0.35c0-0.01,0-0.02,0-0.03 l-0.8,0.02l0.6,0.42C19.64,11.97,19.65,11.97,19.65,11.97z"></path> </g> <g> <path class="st1" d="M20.74,19.95c-0.01,0-0.03-0.01-0.04-0.01c-0.01,0-0.01,0-0.01,0c0,0,0,0-0.01,0.01 c-0.03,0.03-0.06,0.05-0.09,0.08l0.03,0L20.74,19.95z"></path> </g> <g> <path d="M20.62,20.03l-0.03,0c-0.02,0.02-0.05,0.05-0.07,0.07L20.62,20.03z"></path> </g> <g> <path class="st1" d="M24.22,15.59c0.01,0.04,0.01,0.09,0.01,0.13l0.2-0.58c-0.07,0.14-0.14,0.28-0.21,0.43 C24.21,15.57,24.22,15.58,24.22,15.59z"></path> </g> <g> <path class="st1" d="M24.74,13.63C24.73,13.63,24.73,13.62,24.74,13.63l-0.13-0.19c-0.23-0.34-0.46-0.69-0.69-1.03 c0.04,0.68,0.09,1.34,0.13,2.03c0.01,0.1,0.01,0.2,0.02,0.3l0.68-0.8C24.67,13.83,24.67,13.74,24.74,13.63z"></path> </g> <g> <path class="st1" d="M24.09,15.03c0.01,0.1,0.01,0.2,0.02,0.32l0.43-0.86c-0.15,0.17-0.3,0.35-0.44,0.51 C24.09,15,24.09,15.02,24.09,15.03z"></path> </g> <g> <path class="st1" d="M21.02,19.71c0,0.02,0,0.04-0.01,0.06l0.82-0.54c-0.27,0.15-0.53,0.3-0.8,0.46 C21.02,19.69,21.02,19.69,21.02,19.71z"></path> </g> <g> <path class="st1" d="M21.99,18.32c-0.03,0-0.04,0-0.04,0.01c-0.04,0.08-0.13,0.12-0.22,0.1c0,0,0,0-0.01,0 c0,0.01-0.01,0.01-0.01,0.02c-0.15,0.25-0.31,0.5-0.46,0.76c-0.04,0.07-0.09,0.14-0.13,0.22l0.49-0.28c0.49-0.28,1-0.58,1.5-0.87 c-0.21,0.01-0.42,0.02-0.62,0.03C22.31,18.31,22.15,18.32,21.99,18.32z"></path> </g> <g> <path class="st1" d="M24.07,15.88c-0.01,0-0.01,0-0.01,0c0,0,0,0.01,0,0.02c-0.05,0.25-0.1,0.51-0.15,0.76l0.3-0.89 c0,0,0,0.01-0.01,0.01C24.18,15.83,24.13,15.86,24.07,15.88z"></path> </g> <g> <path class="st1" d="M23.28,17.64c-0.01-0.03-0.01-0.07-0.02-0.1l-0.13-0.71l-1.17,1.29c0,0,0,0,0,0c0,0,0.01,0.01,0.01,0.01 c0,0,0,0,0.01,0c0.35-0.01,0.7-0.02,1.05-0.02l0.18,0c0.01,0,0.02,0,0.03,0c0,0,0,0,0-0.01c0.01-0.05,0.05-0.1,0.09-0.13 c0,0,0.01,0,0.01,0c0,0,0-0.01,0-0.02C23.31,17.85,23.29,17.74,23.28,17.64z"></path> </g> <g> <path class="st1" d="M23.29,16.68c0.06,0.37,0.13,0.74,0.2,1.12c0.08-0.37,0.16-0.74,0.22-1.06c0.04-0.21,0.09-0.42,0.13-0.64 l0.02-0.07c-0.19,0.2-0.38,0.42-0.56,0.62C23.29,16.66,23.29,16.67,23.29,16.68z"></path> </g> <g> <path class="st1" d="M19.01,17.28c0.02-0.07,0.04-0.14,0.05-0.22c0-0.01,0-0.01,0-0.02c-0.22,0.07-0.44,0.14-0.66,0.21l-0.03,0.01 c-0.01,0-0.01,0-0.01,0c-0.02,0.05-0.03,0.09-0.04,0.13c0,0,0.01,0.01,0.01,0.01c0.01,0.01,0.02,0.02,0.03,0.03 c0.01,0.01,0.01,0.02,0.02,0.03c0.01,0,0.01,0.01,0.02,0.01C18.59,17.43,18.78,17.36,19.01,17.28 C19.01,17.28,19.01,17.28,19.01,17.28z"></path> </g> <g> <path class="st1" d="M23.59,12.22c-0.01-0.04-0.04-0.04-0.1-0.05c0,0-0.01,0-0.01,0l-0.02,0.27 C23.51,12.36,23.55,12.29,23.59,12.22C23.59,12.22,23.59,12.22,23.59,12.22z"></path> </g> <g> <polygon class="st1" points="23.61,11.95 23.51,11.8 23.5,11.97 23.58,11.99 "></polygon> </g> <g> <path class="st1" d="M23.29,14.52c-0.02,0.24-0.04,0.49-0.06,0.73c0,0,0,0.01,0,0.01c0,0,0,0,0,0c0.04,0.02,0.09,0.04,0.13,0.06 c0.05,0.02,0.1,0.04,0.14,0.06c0,0,0.01,0,0.01,0c0.03-0.04,0.07-0.08,0.1-0.12c0.05-0.06,0.1-0.12,0.15-0.17 c0.11-0.11,0.14-0.2,0.11-0.32c-0.01-0.04-0.01-0.08-0.01-0.11c0-0.02,0-0.03,0-0.05c-0.04-0.66-0.08-1.32-0.12-1.98 c0-0.08-0.01-0.17-0.02-0.25c0-0.02,0-0.04,0-0.06l-0.01,0c-0.02,0.03-0.04,0.06-0.06,0.09c-0.07,0.11-0.14,0.22-0.21,0.34 c-0.02,0.03-0.03,0.07-0.04,0.11c-0.01,0.05-0.01,0.11-0.01,0.16c0,0.03,0,0.06-0.01,0.08c-0.02,0.28-0.05,0.56-0.07,0.84 L23.29,14.52z"></path> </g> <g> <path class="st1" d="M19.85,11.36c0,0,0.01,0,0.01,0c0,0,0-0.01,0-0.01c0.02-0.15,0.04-0.3,0.06-0.45 c0.02-0.15,0.04-0.31,0.06-0.47c0-0.02-0.01-0.05-0.02-0.06c-0.13-0.16-0.26-0.31-0.38-0.46c-0.04-0.05-0.08-0.09-0.12-0.14 l-0.13-0.16c-0.2-0.24-0.41-0.5-0.62-0.74c-0.01-0.01-0.02-0.01-0.02-0.02c-0.02,0-0.04,0-0.07,0.01c0,0-0.01,0-0.01,0l-0.17,0.43 c-0.19,0.47-0.38,0.96-0.57,1.43c0,0,0.01,0,0.01,0.01c0.1,0.07,0.21,0.15,0.31,0.22c0.19,0.14,0.39,0.27,0.58,0.41 c0.01,0.01,0.04,0.02,0.05,0.02c0.18,0,0.37-0.01,0.55-0.01C19.53,11.37,19.69,11.36,19.85,11.36z"></path> </g> <g> <path class="st1" d="M21.7,8.87c0.03,0.03,0.03,0.03,0.05,0.02c0.05-0.02,0.1-0.02,0.15,0c0.05,0.02,0.1,0.06,0.12,0.11 c0.01,0.03,0.02,0.07,0.02,0.1l0.8,0.12l-1.47-0.69C21.47,8.64,21.59,8.76,21.7,8.87z"></path> </g> <g> <path class="st1" d="M20.86,8.3c0.01,0.02,0.03,0.03,0.04,0.05c0.15,0.17,0.31,0.35,0.46,0.53c0.06,0.07,0.12,0.11,0.2,0.11 c-0.05-0.06-0.11-0.11-0.16-0.17c-0.12-0.12-0.24-0.24-0.35-0.37C21,8.39,20.93,8.34,20.86,8.3z"></path> </g> <g> <polygon class="st1" points="23.91,15.21 23.7,15.46 23.84,15.52 23.92,15.46 "></polygon> </g> <g> <path class="st1" d="M23.19,15.76l0.19-0.22l-0.17-0.07c0,0,0,0.01,0,0.01c0,0.08-0.01,0.16-0.02,0.23 C23.18,15.75,23.19,15.76,23.19,15.76C23.19,15.76,23.19,15.76,23.19,15.76z"></path> </g> <g> <path class="st1" d="M23.2,13.15l-0.15,0.24c-0.26,0.42-0.54,0.86-0.81,1.29c0,0.01-0.01,0.02-0.01,0.05 c0,0.03,0.01,0.05,0.01,0.09c0,0.01,0,0.01,0,0.02l0.81,0.35l0.17-2.09C23.22,13.11,23.21,13.13,23.2,13.15z"></path> </g> <g> <path class="st1" d="M23.85,15.81c-0.02-0.03-0.03-0.06-0.05-0.09c0,0,0,0,0,0c-0.07-0.03-0.15-0.07-0.23-0.1 c-0.07,0.08-0.13,0.16-0.2,0.23l-0.03,0.04c0.06,0.16,0.03,0.28-0.11,0.38c0.01,0.06,0.02,0.13,0.03,0.19L23.85,15.81z"></path> </g> <g> <path class="st1" d="M22.26,9.6c0.15,0.23,0.31,0.46,0.46,0.7c0.19,0.3,0.42,0.56,0.66,0.83c0.02-0.01,0.03-0.03,0.03-0.1 c0-0.34,0-0.68,0-1.01c0-0.12,0-0.23,0-0.35V9.64c-0.09-0.03-0.16-0.08-0.2-0.17c0,0-0.01,0-0.01,0c-0.41-0.07-0.79-0.14-1.15-0.2 C22.11,9.38,22.18,9.49,22.26,9.6z"></path> </g> <g> <path class="st1" d="M20.06,7.98c-0.08-0.03-0.17-0.05-0.25-0.08c-0.14-0.04-0.27-0.09-0.41-0.13c0,0,0,0,0,0 c-0.06,0.09-0.13,0.18-0.19,0.27c-0.02,0.03-0.05,0.07-0.07,0.1c-0.02,0.02-0.03,0.05-0.05,0.07l0.01,0 C19.42,8.13,19.74,8.06,20.06,7.98z"></path> </g> <g> <path class="st1" d="M21,8.12c0.34,0.16,0.67,0.32,1,0.48l-1.49-0.96c0.14,0.15,0.29,0.3,0.43,0.44C20.95,8.1,20.97,8.11,21,8.12z"></path> </g> <g> <path class="st1" d="M20.22,8.79l0.08-0.57c-0.03-0.02-0.06-0.03-0.08-0.06c-0.01-0.01-0.01-0.01-0.01-0.01c0,0,0,0-0.02,0 l-0.09,0.02c-0.37,0.09-0.74,0.18-1.12,0.26c-0.05,0.01-0.08,0.03-0.1,0.07c-0.03,0.04-0.04,0.06-0.03,0.08L20.22,8.79z"></path> </g> <g> <path class="st1" d="M19.31,7.54c0.09-0.11,0.17-0.24,0.27-0.38c-0.33,0.03-0.67,0.05-1,0.08l-0.06,0c-0.05,0-0.11,0.01-0.16,0.01 c0.31,0.1,0.62,0.2,0.93,0.29C19.3,7.55,19.31,7.55,19.31,7.54z"></path> </g> <g> <path class="st1" d="M21.1,8.89c-0.19-0.21-0.39-0.43-0.58-0.65c0,0-0.02-0.01-0.03-0.01c0,0,0,0,0,0c0,0,0,0.01,0,0.01 c0,0.05-0.01,0.1-0.02,0.15c0,0.02-0.01,0.04-0.01,0.06c-0.01,0.1-0.03,0.2-0.04,0.31l-0.01,0.06l0.73,0.11L21.1,8.89z"></path> </g> <g> <path class="st1" d="M20.19,7.83c0.01-0.01,0-0.03-0.02-0.07c-0.1-0.13-0.19-0.27-0.28-0.41c-0.04-0.07-0.07-0.1-0.12-0.1 c0,0,0,0,0,0l-0.26,0.36L20.19,7.83z"></path> </g> <g> <path class="st1" d="M20.21,10.37c0.23,0.27,0.46,0.55,0.66,0.79c0.01,0,0.03,0,0.04-0.01c0.22-0.54,0.46-1.12,0.69-1.7 c0,0,0-0.01,0-0.01c-0.09-0.1-0.18-0.2-0.27-0.3c-0.01-0.01-0.03-0.02-0.05-0.03c-0.25-0.04-0.5-0.07-0.74-0.11l-0.15-0.02 l-0.02,0.13c-0.06,0.4-0.11,0.81-0.17,1.22C20.2,10.35,20.21,10.37,20.21,10.37z"></path> </g> <g> <path class="st0" d="M25.21,13.36c-0.04-0.08-0.09-0.18-0.21-0.19c-0.01,0-0.02,0-0.02,0c0,0,0-0.01-0.01-0.02 c-0.47-1.49-0.88-2.81-1.27-4.02C23.7,9.1,23.7,9.1,23.72,9.08c0.09-0.11,0.09-0.28-0.02-0.39c-0.11-0.1-0.26-0.1-0.37,0.01 c0,0-0.01,0.01-0.01,0.01l-3.08-2.15c0.04-0.16,0-0.28-0.13-0.34c-0.08-0.03-0.22-0.06-0.33,0.15l-1.81-0.13v0.19l0.99,0.07 c-0.25,0.02-0.51,0.04-0.76,0.06c-0.02,0-0.04,0-0.06-0.01c-0.06-0.02-0.11-0.04-0.17-0.06v0.26c0.18-0.01,0.35,0.04,0.51,0.1 c0.23,0.09,0.47,0.17,0.71,0.24c0.07,0.02,0.15,0.05,0.22,0.07c-0.02,0.03-0.04,0.07-0.06,0.1c-0.1,0.15-0.2,0.31-0.31,0.46 c-0.01,0.02-0.03,0.03-0.06,0.04c-0.03,0.01-0.06,0.02-0.09,0.02c-0.05,0.01-0.09,0.02-0.14,0.04c-0.11,0.05-0.23,0.04-0.38-0.03 c-0.13-0.06-0.26-0.12-0.39-0.17v0.21l0.27,0.12l-0.21,0.05c-0.02,0-0.04,0.01-0.06,0.01v0.21c0.18-0.04,0.35-0.09,0.52-0.13 c0.04-0.01,0.08,0,0.13,0.03c-0.16,0.05-0.33,0.1-0.51,0.15c-0.05,0.01-0.1,0.03-0.15,0.04v0.21l0.71-0.2l-0.01,0.03L18.66,8.4 l0.01,0l-0.67,1.79l-0.01-0.01v0.54c0.02-0.05,0.03-0.09,0.05-0.14c0.01-0.03,0.02-0.05,0.03-0.08l0.64,0.49l-0.07,0 C18.42,10.99,18.2,11,17.98,11v0.18c0.28-0.01,0.59-0.02,0.91-0.02c0,0,0,0,0,0c0.02,0,0.05,0.01,0.06,0.02 c0.15,0.11,0.29,0.22,0.44,0.33c0.1,0.08,0.2,0.15,0.3,0.23l0,0c0.01,0.01,0.03,0.02,0.04,0.03c0,0,0,0,0,0.02 c-0.01,0.02-0.01,0.05-0.01,0.07l-0.84,0.29c-0.02,0.01-0.04,0.01-0.06,0.02c-0.05,0.02-0.1,0.03-0.15,0.05c-0.01,0-0.01,0-0.01,0 c0,0,0,0-0.01-0.01c-0.13-0.18-0.26-0.36-0.39-0.53c-0.09-0.13-0.19-0.26-0.29-0.39v0.27c0.15,0.2,0.3,0.4,0.45,0.6l0.08,0.11 l-0.53,0.18v0.2c0.22-0.07,0.43-0.15,0.63-0.22c0.01,0,0.01,0,0.01,0c0,0,0,0,0.01,0.01c0.19,0.26,0.39,0.53,0.58,0.79l0.18,0.24 c0,0,0.01,0.01,0.01,0.01c-0.01,0.03-0.03,0.06-0.05,0.07l-0.37,0.13c-0.33,0.11-0.66,0.22-0.99,0.33v0.19 c0.54-0.19,1.14-0.39,1.41-0.47l-0.66,2.29l-0.74-0.62v0.25c0.22,0.19,0.45,0.37,0.67,0.56c0.01,0.01,0.02,0.02,0.02,0.02 c0,0,0,0.01,0,0.02c-0.07,0.22-0.13,0.43-0.18,0.62c-0.01,0.03-0.02,0.04-0.04,0.05c-0.08,0.02-0.15,0.05-0.25,0.09 c-0.01,0.01-0.02,0-0.02,0c0,0-0.01,0-0.02-0.02c-0.06-0.08-0.12-0.15-0.17-0.23v0.31v0.19c0.02-0.01,0.05-0.02,0.07-0.03 c0.05-0.02,0.05-0.01,0.07,0.02c0,0.01,0.01,0.01,0.01,0.02c-0.02,0.04-0.04,0.06-0.13,0.05c-0.01,0-0.02,0-0.02,0v0.19 c0.04,0,0.07,0,0.11,0c0,0,0.01,0,0.01,0c0,0,0,0,0,0.01c0.02,0.04,0.04,0.08,0.06,0.12c0,0.01,0.01,0.01,0.01,0.02l-0.2,0.39v0.4 l0.35-0.7c0.09,0.01,0.16-0.01,0.24-0.06c0.03,0.02,0.05,0.04,0.07,0.06c0.09,0.08,0.18,0.16,0.28,0.22 c0.08,0.06,0.1,0.1,0.07,0.22c-0.05,0.2-0.1,0.41-0.14,0.61c-0.02,0.08-0.04,0.17-0.05,0.25c0,0,0,0.01,0,0.01l-0.15,0.06 l-0.67-0.39v0.23c0.19,0.11,0.38,0.22,0.57,0.33l-0.57,0.17v0.12v0.04l0.07,0l0.03,0c0.2-0.06,0.39-0.12,0.56-0.17 c0.01,0,0.01,0,0.02,0c0.07,0.05,0.14,0.06,0.22,0.02l0.26,0.25l0.28,0.03c-0.12-0.11-0.23-0.22-0.34-0.33L19,19.34 c0,0-0.01-0.01-0.01-0.01c0,0,0.01,0,0.01-0.01c0.34-0.14,0.68-0.28,1.02-0.41c0,0,0.01,0,0.02,0c0.19,0.16,0.39,0.32,0.58,0.48 l0.07,0.06c-0.04,0.07-0.1,0.1-0.18,0.12c-0.22,0.04-0.43,0.09-0.64,0.14c-0.09,0.02-0.19,0.04-0.28,0.06l0.65,0.06l0.16,0.01 l0.66,0.06c0.41-0.29,0.83-0.58,1.23-0.87c0.37-0.26,0.75-0.53,1.12-0.79c0.03-0.02,0.04-0.02,0.06-0.01 c0.1,0.03,0.21-0.01,0.27-0.11c0.06-0.1,0.06-0.23-0.02-0.31c-0.02-0.02-0.02-0.02,0-0.07c0.17-0.55,0.35-1.09,0.52-1.64l0.24-0.77 c0.17-0.53,0.34-1.07,0.51-1.6c0-0.01,0.01-0.02,0.01-0.03c0.12-0.03,0.17-0.12,0.2-0.2l0.01-0.01v-0.12L25.21,13.36z M24.64,12.72 c-0.19-0.34-0.38-0.66-0.56-0.97c-0.01-0.01-0.01-0.03-0.02-0.05c-0.01-0.02-0.01-0.04-0.02-0.06c-0.01-0.02-0.03-0.04-0.04-0.06 c-0.01-0.01-0.02-0.03-0.02-0.04c-0.01-0.02-0.02-0.03-0.03-0.05c-0.02-0.03-0.04-0.06-0.04-0.08c-0.04-0.34-0.07-0.68-0.11-1.02 c-0.01-0.12-0.02-0.23-0.04-0.35c0-0.03-0.01-0.07-0.01-0.1L24.64,12.72z M21.94,16.11c-0.31,0.11-0.62,0.22-0.93,0.32 c-0.36,0.13-0.73,0.26-1.1,0.38c-0.01,0-0.04,0-0.05,0c-0.08-0.04-0.16-0.09-0.23-0.13c-0.02-0.01-0.03-0.02-0.05-0.03 c0.8-0.61,1.65-1.26,2.48-1.9l-0.02,0.32c-0.02,0.33-0.05,0.67-0.07,1C21.97,16.09,21.97,16.1,21.94,16.11z M21.95,16.31l-0.11,1.5 l-0.11,0.07l-1.63-0.92L21.95,16.31z M20.22,9.71c-0.05-0.07-0.1-0.13-0.15-0.2l-0.25-0.32c-0.23-0.3-0.47-0.61-0.71-0.91 c0.26,0.04,0.53,0.08,0.79,0.12c0.1,0.02,0.21,0.03,0.31,0.05c0.05,0.01,0.1,0.02,0.15,0.02c0,0,0.01,0,0.01,0L20.22,9.71z M20.59,10.48c0.09,0.11,0.17,0.22,0.26,0.34c0,0.01,0.01,0.01,0.01,0.02c0.03,0.04,0.03,0.04,0.02,0.06 c-0.01,0.01-0.01,0.03-0.02,0.04h-0.61l0.1-0.76C20.43,10.28,20.51,10.38,20.59,10.48z M20.23,11.12c0.01,0,0.02,0,0.03,0 c0.07,0,0.13,0,0.2,0c0.06,0,0.12,0,0.18,0c0.08,0,0.17,0,0.25,0c-0.09,0.16-0.18,0.32-0.28,0.48c-0.01,0.01-0.02,0.03-0.04,0.03 c-0.08,0.02-0.16,0.04-0.27,0.06c0,0,0,0-0.01,0c-0.03-0.03-0.06-0.07-0.1-0.11c-0.01-0.01-0.02-0.02-0.03-0.03L20.23,11.12z M22.37,9.73c0.05,0.06,0.1,0.11,0.14,0.17c0.11,0.12,0.21,0.25,0.31,0.38c0.13,0.17,0.25,0.35,0.36,0.53 c0.04,0.05,0.07,0.11,0.11,0.16c0,0,0,0,0,0.01l-0.06,0.02c-0.09,0.02-0.18,0.04-0.27,0.06l-0.09,0.02 c-0.18,0.04-0.36,0.09-0.54,0.13c-0.02,0-0.04,0-0.05,0c-0.19-0.05-0.39-0.11-0.57-0.16c-0.14-0.04-0.27-0.08-0.41-0.12 c0,0,0,0-0.02-0.02c0-0.01-0.01-0.01-0.01-0.02c-0.04-0.05-0.02-0.09,0.01-0.16c0.01-0.01,0.01-0.03,0.02-0.04l0.08-0.21 c0.17-0.44,0.34-0.89,0.5-1.33L22.37,9.73z M21.95,8.91c0-0.01,0.01-0.02,0.02-0.03c0,0,0.01-0.01,0.01-0.01 c0.07,0.11,0.13,0.21,0.2,0.32C22.1,9.1,22.03,9.01,21.95,8.91C21.95,8.92,21.95,8.91,21.95,8.91z M22.9,15.6 c0.01,0.01,0.01,0.02,0.01,0.02c0,0,0,0.01-0.01,0.02c-0.02,0.04-0.02,0.08-0.03,0.12c0,0,0,0.01,0,0.01l-0.74,0.26 c0-0.02,0-0.04,0-0.06c0.01-0.11,0.02-0.22,0.02-0.34c0.02-0.28,0.04-0.57,0.06-0.87c0.09,0.11,0.18,0.23,0.27,0.34 C22.63,15.27,22.76,15.44,22.9,15.6z M22.51,14.81c0.03,0.01,0.05,0.02,0.08,0.04c0.17,0.08,0.35,0.17,0.53,0.25 c0.01,0.01,0.02,0.01,0.02,0.01c0,0,0,0.01,0,0.01c-0.01,0.09-0.02,0.19-0.02,0.28c0,0.02,0,0.04-0.01,0.07l-0.05,0.02L22.51,14.81 z M22.22,14.29c-0.02-0.01-0.03-0.01-0.05-0.01c0,0,0,0-0.01,0c0-0.01,0-0.01-0.01-0.02c-0.09-0.3-0.19-0.61-0.28-0.91 c-0.04-0.15-0.09-0.29-0.13-0.44c-0.13-0.42-0.26-0.85-0.38-1.27l0.11-0.03c0.28-0.07,0.55-0.13,0.82-0.19c0.01,0,0.02,0,0.03,0 c0.3,0.09,0.62,0.18,0.92,0.26l0.15,0.04c0,0.02,0,0.04,0,0.05c-0.01,0.2-0.03,0.38-0.04,0.55c0,0.02-0.01,0.05-0.02,0.07 c-0.33,0.56-0.66,1.13-0.99,1.68L22.22,14.29z M22.68,11.32c0.1-0.02,0.21-0.05,0.31-0.07c0.11-0.03,0.22-0.05,0.33-0.08 c0.03-0.01,0.06,0,0.08,0.02c0.02,0.02,0.03,0.05,0.02,0.09c0,0.03-0.01,0.07-0.01,0.1c0,0.02,0,0.04,0,0.07 c0,0.03-0.01,0.06-0.01,0.09L22.68,11.32z M21.92,11.3l-0.62,0.15c-0.01-0.02-0.01-0.04-0.02-0.05c-0.03-0.09-0.06-0.18-0.08-0.27 c0.01-0.01,0.02-0.02,0.03-0.02c0,0,0,0,0,0C21.46,11.17,21.69,11.24,21.92,11.3z M21.94,14.1c-0.05-0.06-0.1-0.13-0.15-0.19 l-0.27-0.34c-0.35-0.44-0.71-0.89-1.06-1.33c-0.01-0.01-0.01-0.01-0.01-0.01c0,0,0-0.01,0.01-0.01c0.05-0.07,0.09-0.15,0.13-0.22 c0.03-0.06,0.07-0.11,0.1-0.17c0.01-0.01,0.02-0.02,0.02-0.02c0.14-0.04,0.28-0.07,0.42-0.1c0.03-0.01,0.05-0.01,0.08-0.02 L21.94,14.1z M20.33,12.09l-0.04-0.04c0-0.01,0.01-0.02,0.01-0.03c0.02-0.05,0.03-0.09,0.04-0.14c0,0,0,0,0-0.01 c0.04-0.01,0.08-0.02,0.12-0.03L20.33,12.09z M20.83,11.56c0.02-0.03,0.04-0.06,0.05-0.09c0.01-0.02,0.02-0.04,0.04-0.06 c0.04-0.07,0.09-0.15,0.13-0.22c0.03,0.09,0.06,0.18,0.08,0.28c0,0.01,0,0.02,0.01,0.02L20.83,11.56z M20.22,12.27 C20.22,12.27,20.22,12.27,20.22,12.27c-0.14,0.24-0.28,0.48-0.41,0.71c-0.02,0.04-0.05,0.08-0.07,0.13l0.26-0.92c0,0,0.01,0,0.01,0 c0.05-0.01,0.09-0.01,0.13-0.02C20.16,12.19,20.19,12.23,20.22,12.27z M20.33,12.4l1.51,1.9l-2.12-0.76c0,0,0,0,0,0 c-0.01-0.02-0.01-0.05-0.02-0.07C19.9,13.13,20.1,12.8,20.33,12.4z M21.92,14.53c0,0,0.01,0.01,0.02,0.03 c0.01,0.01,0.01,0.03,0.02,0.05l-0.32,0.24c-0.27,0.21-0.54,0.41-0.81,0.62l-0.06,0.04c-0.42,0.32-0.85,0.65-1.27,0.97c0,0,0,0,0,0 c0,0,0-0.01,0-0.01c0.01-0.28,0.02-0.56,0.04-0.83l0.01-0.16c0.01-0.21,0.02-0.42,0.03-0.63c0.01-0.25,0.02-0.49,0.04-0.74 c0-0.06,0.01-0.12,0.01-0.17c0-0.07,0.01-0.14,0.01-0.21c0-0.02,0-0.03,0.01-0.03c0,0,0,0,0.01,0c0,0,0.01,0,0.02,0 C20.39,13.98,21.17,14.26,21.92,14.53z M19.66,16.91l-0.25,0.09c0.01-0.06,0.03-0.12,0.04-0.18c0.01,0,0.02-0.01,0.02-0.01 C19.54,16.84,19.6,16.87,19.66,16.91z M22.03,17.49c0.02-0.29,0.04-0.59,0.06-0.88c0-0.03,0-0.06,0.01-0.08 c0.01-0.08,0.01-0.17,0.02-0.25c0-0.02,0-0.03,0.02-0.03c0.29-0.1,0.54-0.19,0.77-0.27c0.02-0.01,0.03-0.01,0.04-0.01c0,0,0,0,0,0 l-0.93,1.61L22.03,17.49z M22.43,17.22c0.23-0.38,0.45-0.77,0.68-1.15l0-0.01c0,0,0-0.01,0.01-0.01c0,0,0,0,0,0 c0.02,0.11,0.04,0.22,0.05,0.32c0,0.01,0,0.03-0.01,0.03c-0.27,0.32-0.55,0.64-0.82,0.96L22.43,17.22z M23.14,14.9l-0.79-0.36 c0-0.01,0-0.01,0-0.02c-0.01-0.04-0.01-0.06-0.01-0.09c0-0.02,0-0.04,0.01-0.05c0.26-0.44,0.52-0.89,0.78-1.33l0.15-0.25 c0.01-0.02,0.02-0.04,0.04-0.06L23.14,14.9z M23.27,15.43c0.01-0.08,0.02-0.16,0.02-0.24c0,0,0-0.01,0-0.01l0.16,0.08l-0.18,0.23 c0,0,0,0,0,0C23.27,15.48,23.26,15.47,23.27,15.43z M23.4,15.62l0.03-0.04c0.06-0.08,0.13-0.16,0.19-0.24 c0.08,0.03,0.15,0.07,0.22,0.11c0,0,0,0,0,0c0.02,0.03,0.03,0.06,0.05,0.09l-0.57,0.67c-0.01-0.07-0.02-0.13-0.03-0.2 C23.43,15.9,23.47,15.78,23.4,15.62z M23.89,15.24l-0.14-0.06l0.2-0.26l0.01,0.26L23.89,15.24z M23.65,10.68 C23.64,10.68,23.64,10.68,23.65,10.68c-0.01-0.02-0.01-0.05-0.01-0.07L23.65,10.68z M23.58,11.4l0.1,0.16l-0.03,0.04l-0.08-0.02 L23.58,11.4z M23.55,11.77c0,0,0.01,0,0.01,0c0.06,0.01,0.08,0.02,0.1,0.06c0,0,0,0,0,0c-0.04,0.07-0.08,0.15-0.13,0.22 L23.55,11.77z M23.48,12.64c0-0.06,0.01-0.11,0.01-0.17c0.01-0.04,0.02-0.08,0.03-0.11c0.07-0.12,0.14-0.23,0.2-0.35 c0.02-0.03,0.04-0.06,0.05-0.09l0.01,0c0,0.02,0,0.04,0,0.06c0.01,0.08,0.01,0.17,0.02,0.26c0.04,0.68,0.08,1.36,0.11,2.04 c0,0.02,0,0.03,0,0.05c0,0.04,0,0.08,0.01,0.12c0.03,0.12,0,0.22-0.11,0.33c-0.05,0.06-0.1,0.12-0.15,0.18 c-0.03,0.04-0.06,0.08-0.1,0.12c0,0-0.01,0-0.01,0c-0.05-0.02-0.09-0.04-0.14-0.06c-0.04-0.02-0.08-0.04-0.13-0.06c0,0,0,0,0,0 c0,0,0,0,0-0.01c0.02-0.25,0.04-0.51,0.06-0.76l0.05-0.61c0.02-0.29,0.04-0.57,0.07-0.86C23.48,12.7,23.48,12.67,23.48,12.64z M23.28,9c0.04,0.09,0.1,0.14,0.19,0.17v0.03c0,0.12,0,0.24,0,0.36c0,0.34,0,0.7,0,1.04c0,0.07,0,0.09-0.02,0.1 c-0.23-0.27-0.45-0.54-0.63-0.85c-0.14-0.24-0.29-0.49-0.44-0.72c-0.07-0.11-0.14-0.23-0.21-0.34c0.35,0.06,0.72,0.13,1.11,0.2 C23.27,9,23.27,9,23.28,9z M22.16,8.63c0-0.03-0.01-0.07-0.02-0.1c-0.02-0.05-0.07-0.1-0.12-0.12c-0.05-0.02-0.1-0.02-0.15,0 c-0.02,0.01-0.02,0.01-0.05-0.02c-0.11-0.12-0.21-0.24-0.32-0.35l1.42,0.71L22.16,8.63z M21.7,8.51c-0.07-0.01-0.13-0.04-0.19-0.12 c-0.14-0.18-0.3-0.37-0.44-0.54c-0.01-0.02-0.03-0.03-0.04-0.05c0.07,0.04,0.13,0.09,0.18,0.16c0.11,0.13,0.22,0.26,0.33,0.38 C21.59,8.39,21.64,8.45,21.7,8.51z M22.12,8.11c-0.32-0.16-0.64-0.33-0.97-0.49c-0.02-0.01-0.04-0.03-0.06-0.04 c-0.14-0.15-0.28-0.3-0.42-0.46L22.12,8.11z M20.59,8.27c0.01-0.11,0.03-0.21,0.04-0.32c0-0.02,0.01-0.04,0.01-0.07 c0.01-0.05,0.01-0.1,0.02-0.15c0-0.01,0-0.01,0-0.01c0,0,0,0,0,0c0.01,0,0.02,0,0.03,0.01c0.19,0.22,0.38,0.45,0.56,0.67l0.03,0.04 l-0.7-0.11L20.59,8.27z M20.56,8.51l0.14,0.02c0.24,0.04,0.48,0.07,0.72,0.11c0.01,0,0.03,0.01,0.05,0.03 c0.09,0.1,0.18,0.2,0.26,0.31c0,0,0,0.01,0,0.01c-0.23,0.6-0.46,1.19-0.67,1.75c-0.01,0.01-0.03,0.01-0.04,0.01 c-0.19-0.25-0.42-0.53-0.63-0.81c0-0.01-0.01-0.02-0.01-0.03c0.05-0.42,0.11-0.85,0.16-1.26L20.56,8.51z M19.96,6.72 C19.96,6.72,19.96,6.72,19.96,6.72c0.05,0,0.08,0.03,0.12,0.1c0.08,0.14,0.18,0.29,0.27,0.43c0.03,0.04,0.03,0.05,0.02,0.07 l-0.66-0.22L19.96,6.72z M18.61,6.72c0.05,0,0.1-0.01,0.16-0.01l0.06-0.01c0.31-0.03,0.64-0.06,0.96-0.08 c-0.09,0.15-0.18,0.28-0.26,0.39c0,0-0.01,0-0.01,0.01C19.21,6.93,18.91,6.82,18.61,6.72z M19.35,7.64 c0.02-0.04,0.05-0.07,0.07-0.11c0.06-0.09,0.12-0.18,0.18-0.28c0,0,0,0,0,0c0.13,0.05,0.27,0.09,0.4,0.14 c0.08,0.03,0.16,0.05,0.24,0.08c-0.31,0.08-0.61,0.15-0.93,0.24l-0.01,0C19.32,7.68,19.34,7.66,19.35,7.64z M19.11,8.01 c0.02-0.04,0.05-0.06,0.1-0.07c0.36-0.09,0.72-0.18,1.08-0.27l0.09-0.02c0.02,0,0.02,0,0.02,0c0,0,0,0,0.01,0.01 c0.02,0.03,0.05,0.05,0.07,0.06L20.4,8.3l-1.32-0.21C19.07,8.07,19.08,8.05,19.11,8.01z M19.01,10.96 c-0.19-0.14-0.38-0.28-0.56-0.42c-0.1-0.08-0.2-0.15-0.3-0.23c0,0,0,0-0.01-0.01c0.19-0.49,0.37-0.99,0.55-1.48l0.17-0.45 c0,0,0.01,0,0.01,0c0.03,0,0.05-0.01,0.07-0.01c0,0,0.02,0.01,0.02,0.02c0.2,0.26,0.4,0.52,0.6,0.77l0.12,0.16 c0.04,0.05,0.08,0.1,0.11,0.15c0.12,0.16,0.25,0.32,0.37,0.48c0.01,0.01,0.02,0.05,0.02,0.06c-0.02,0.16-0.04,0.32-0.06,0.48 c-0.02,0.15-0.04,0.31-0.06,0.46c0,0.01,0,0.01,0,0.01c0,0-0.01,0-0.01,0c-0.16,0-0.31,0.01-0.47,0.01c-0.17,0-0.35,0.01-0.53,0.01 C19.04,10.97,19.02,10.97,19.01,10.96z M19.26,11.15l0.78-0.02c0,0.01,0,0.02,0,0.03c-0.02,0.12-0.03,0.24-0.05,0.36c0,0,0,0,0,0 c-0.04,0.02-0.08,0.04-0.12,0.06c-0.01,0-0.02,0.01-0.02,0.01L19.26,11.15z M18.79,12.39l0.14-0.05c0.24-0.08,0.47-0.16,0.7-0.24 c0.01,0,0.02-0.01,0.03-0.01c0.02-0.01,0.05-0.02,0.08-0.03c0.05-0.03,0.06-0.02,0.08,0.02l0,0c0.01,0.01,0.01,0.02,0.01,0.02 c0,0,0,0,0,0.01c-0.06,0.22-0.12,0.45-0.18,0.67c-0.05,0.19-0.1,0.38-0.15,0.57C19.26,13.03,19.02,12.7,18.79,12.39z M19.45,14.15 c-0.01,0.18-0.02,0.37-0.03,0.55c-0.01,0.25-0.02,0.49-0.04,0.74c0,0.07-0.01,0.14-0.01,0.21c-0.01,0.26-0.03,0.53-0.03,0.79 c0,0.03-0.01,0.05-0.03,0.06c-0.02-0.02-0.05-0.04-0.07-0.06c-0.11-0.1-0.23-0.19-0.35-0.29c0,0,0-0.01,0-0.01 C19.07,15.48,19.26,14.81,19.45,14.15z M18.82,16.34l0.37,0.31l-0.51,0.17L18.82,16.34z M18.64,17.25c0-0.01-0.01-0.02-0.02-0.03 c-0.01-0.01-0.02-0.02-0.03-0.03c0,0-0.01-0.01-0.01-0.01c0.01-0.04,0.02-0.09,0.04-0.14c0,0,0.01,0,0.01,0l0.03-0.01 c0.21-0.07,0.43-0.15,0.64-0.22c0,0.01,0,0.01,0,0.02c-0.02,0.08-0.03,0.15-0.05,0.23c0,0-0.01,0.01-0.01,0.01 c-0.22,0.08-0.4,0.14-0.58,0.2C18.65,17.25,18.64,17.25,18.64,17.25z M18.67,17.51c0-0.02,0.01-0.04,0.01-0.06 c0.15-0.05,0.29-0.1,0.45-0.16l0.06-0.02l-0.13,0.56c-0.02-0.01-0.03-0.03-0.05-0.04C18.9,17.7,18.78,17.6,18.67,17.51z M18.95,19.13c0-0.01,0-0.02,0-0.05c0.05-0.23,0.11-0.47,0.16-0.7c0.02-0.07,0.03-0.15,0.05-0.22l0.71,0.6L18.95,19.13z M20.05,18.67c-0.26-0.22-0.53-0.45-0.84-0.71c-0.01-0.01-0.01-0.01-0.01-0.01l0,0c0,0,0-0.01,0-0.02c0.06-0.25,0.11-0.5,0.15-0.69 c0.01-0.03,0.01-0.04,0.04-0.05c0.11-0.03,0.22-0.07,0.32-0.11c0.04-0.02,0.09-0.03,0.13-0.05c0.01,0,0.02-0.01,0.03-0.01 c0.01,0,0.02,0.01,0.02,0.01l0.12,0.07c0.54,0.3,1.09,0.62,1.63,0.93c-0.29,0.12-0.58,0.24-0.88,0.35 c-0.23,0.09-0.46,0.19-0.7,0.28C20.06,18.68,20.06,18.68,20.05,18.67z M20.8,19.31l-0.57-0.48l1.34-0.55L20.8,19.31z M21.16,19.62 c0-0.02,0.01-0.04,0.01-0.06c0-0.02,0-0.02,0.01-0.03c0.26-0.16,0.51-0.31,0.77-0.47L21.16,19.62z M21.73,18.97l-0.47,0.29 c0.04-0.07,0.09-0.15,0.13-0.22c0.15-0.26,0.3-0.52,0.45-0.78c0-0.01,0.01-0.02,0.01-0.02c0,0,0,0,0.01,0 c0.09,0.03,0.17-0.01,0.21-0.1c0.01-0.01,0.01-0.01,0.04-0.01c0.15-0.01,0.31-0.01,0.46-0.02c0.2-0.01,0.4-0.02,0.6-0.03 C22.69,18.38,22.2,18.68,21.73,18.97z M23.4,17.77c-0.04,0.02-0.08,0.07-0.09,0.13c0,0,0,0.01,0,0.01c-0.01,0-0.02,0-0.03,0 l-0.18,0c-0.33,0.01-0.67,0.01-1.01,0.03c0,0,0,0-0.01,0c0,0,0-0.01-0.01-0.01c0,0,0,0,0,0l1.13-1.33l0.12,0.73 c0.01,0.04,0.01,0.07,0.02,0.11c0.02,0.1,0.04,0.21,0.05,0.31C23.41,17.75,23.41,17.76,23.4,17.77 C23.41,17.76,23.4,17.76,23.4,17.77z M23.9,15.84c-0.04,0.22-0.09,0.44-0.13,0.66c-0.06,0.33-0.14,0.71-0.22,1.09 c-0.07-0.39-0.13-0.78-0.19-1.15c0-0.01,0-0.02,0.01-0.02c0.18-0.22,0.37-0.43,0.54-0.64L23.9,15.84z M23.96,16.41 c0.05-0.26,0.1-0.52,0.14-0.78c0-0.01,0-0.02,0-0.02c0,0,0.01,0,0.01,0c0.06-0.02,0.1-0.05,0.13-0.1c0,0,0-0.01,0.01-0.01 L23.96,16.41z M24.27,15.44c0.01-0.04,0.01-0.09-0.01-0.13c0-0.01,0-0.03,0-0.03c0.07-0.15,0.13-0.29,0.2-0.44L24.27,15.44z M24.15,15.06c-0.01-0.12-0.01-0.22-0.02-0.32c0-0.01,0-0.03,0-0.03c0.14-0.17,0.28-0.35,0.43-0.53L24.15,15.06z M24.11,14.43 c-0.01-0.11-0.01-0.21-0.02-0.31c-0.04-0.7-0.08-1.39-0.12-2.09c0.22,0.35,0.45,0.71,0.67,1.06l0.12,0.19c0,0,0,0.01,0.01,0.01 c-0.06,0.11-0.06,0.2,0.01,0.32L24.11,14.43z"></path> </g> <g> <path d="M17.81,19.78l-0.04,0v-0.05l-0.07,0.01v0.08C17.74,19.8,17.78,19.79,17.81,19.78z"></path> </g> <g> <path class="st0" d="M21.17,19.86l-0.82,5.05h-0.9v1.02h-3.56v-1.02h-1.12l-0.82-5.05l3.24-0.28v-0.06l0.37,0.03l0.37-0.03v0.07 L21.17,19.86z M20.2,21.68l0.2-1.23l-2.85-0.25l-0.01,0l-2.83,0.25l0.04,0.22L20.2,21.68z M19.95,23.23l0.18-1.08l-5.3-0.97 l0.19,1.15L19.95,23.23z M19.78,24.24l0.09-0.55l-4.78-0.88l0.23,1.43H19.78z M18.97,25.45v-0.55h-2.62v0.55H18.97z"></path> </g> <g> <path class="st0" d="M16.54,13.5c-0.02-0.65-0.47-1.2-1.08-1.34c-0.64-0.14-1.25,0.15-1.55,0.74c-0.43,0.84,0.16,1.91,1.1,1.97 c0.27,0.02,0.53,0.03,0.81,0.04c0,0.79,0,3.9,0,4.7h0.72c0-0.79,0-3.9,0-4.69c0.21,0,0.42,0,0.63,0v-0.75c-0.21,0-0.42,0-0.64,0 C16.54,13.94,16.55,13.72,16.54,13.5z M15.84,14.18c-0.29,0-0.55,0.02-0.81-0.01c-0.32-0.03-0.56-0.35-0.55-0.69 c0.01-0.34,0.27-0.61,0.63-0.65c0.3-0.03,0.62,0.19,0.7,0.5c0.01,0.06,0.03,0.12,0.03,0.18C15.84,13.73,15.84,13.94,15.84,14.18z"></path> </g> <g> <g> <polygon class="st0" points="16.91,4.11 17.48,1.34 18.05,4.11 "></polygon> </g> <g> <polygon class="st0" points="9.73,7.98 8.32,5.76 10.53,7.17 "></polygon> </g> <g> <polygon class="st0" points="7.93,13.49 4.88,12.92 7.93,12.35 "></polygon> </g> <g> <polygon class="st0" points="11.47,20.33 9.04,21.95 10.67,19.52 "></polygon> </g> </g> <g> <path class="st0" d="M30.96,10.27h5.05v6.25h-5.05V10.27z M32.4,11.7v1.72l1.72-1.72H32.4z M34.57,13.53l-1.54,1.55h1.55 L34.57,13.53z"></path> </g> <g> <path class="st0" d="M42.13,10.29h1.43v4.82h0.97v-4.82h1.44v4.82h0.97v-4.82h1.43v6.26h-6.26V10.29z"></path> </g> <g> <path class="st0" d="M49.29,10.29h5.05v6.25H52.9v-1.2h-2.18v1.2h-1.43V10.29z M50.72,11.72v2.18h2.18v-2.18H50.72z"></path> </g> <g> <path class="st0" d="M55.17,10.29h5.05v1.43h-1.78v4.81h-1.43v-4.81h-1.84V10.29z"></path> </g> <g> <path class="st0" d="M61.05,10.29h5.05v1.43h-1.78v4.81h-1.43v-4.81h-1.84V10.29z"></path> </g> <g> <path class="st0" d="M66.95,10.29h5.04L72,11.72h-3.61v0.97H72v3.84h-5.05V15.1l3.61,0v-0.98h-3.61V10.29z"></path> </g> <g> <rect x="28.43" y="10.29" class="st0" width="1.43" height="6.25"></rect> </g> <g> <rect x="37.11" y="10.27" class="st0" width="1.43" height="6.25"></rect> </g> <path class="st0" d="M28.37,19.31h1.6l0.47,0.47v1.62l-0.47,0.47h-1.6V19.31z M28.95,19.9v1.39h0.89V19.9H28.95z"></path> <path class="st0" d="M30.79,19.31h2.07v0.59h-1.48v0.4h0.99v0.59H31.4l0,0.4h1.46v0.59h-2.07V19.31z"></path> <path class="st0" d="M33.21,19.31h2.07l0,0.59H33.8v0.4h1.48v1.58h-2.07v-0.59l1.48,0v-0.4h-1.48V19.31z"></path> <path class="st0" d="M35.62,19.31h2.07v2.57h-0.59v-0.49h-0.89v0.49h-0.59V19.31z M36.21,19.9v0.89h0.89V19.9H36.21z"></path> <path class="st0" d="M38.04,19.31h2.07v1.58h-0.64l0.64,0.64v0.35h-0.59l-0.89-0.9v0.9h-0.59V19.31z M38.63,19.9v0.4h0.89v-0.4 H38.63z"></path> <path class="st0" d="M40.46,19.31h2.07v1.58H41.9l0.64,0.64v0.35h-0.59l-0.89-0.9v0.9h-0.59V19.31z M41.05,19.9v0.4h0.89v-0.4H41.05 z"></path> <path class="st0" d="M42.88,19.31h2.07v2.57h-2.07V19.31z M43.47,19.9l0,1.39h0.89V19.9H43.47z"></path> <path class="st0" d="M45.29,19.31h0.59v1.98h1.48v0.59h-2.07V19.31z"></path> <path class="st0" d="M47.72,19.31h0.59v1.98h1.48v0.59h-2.07V19.31z"></path> <path class="st0" d="M50.14,19.31h2.07v2.57h-2.07V19.31z M50.73,19.9l0,1.39h0.89V19.9H50.73z"></path> <path class="st0" d="M53.22,21.88v-2.57h0.59v1.98h0.4v-1.98h0.59v1.98h0.4v-1.98h0v0h0.59v1.98l-0.43,0.59H53.22z"></path> <path class="st0" d="M56.14,19.31h2.07v0.59h-1.48v0.4h0.99v0.59h-0.97l0,0.4h1.46v0.59h-2.07V19.31z"></path> <path class="st0" d="M58.57,19.31h2.07l0.01,1.08l-0.19,0.19l0.19,0.19v1.1h-2.07V19.31z M59.16,19.9v0.4h0.89v-0.4H59.16z M59.16,20.88v0.4h0.89v-0.4H59.16z"></path> <g> <rect x="28.34" y="17.61" class="st0" width="43.66" height="0.69"></rect> </g> </svg> 