<svg id="Capa_1" data-name="Capa 1" xmlns="http://www.w3.org/2000/svg" width="1113.68" height="408.01" viewBox="0 0 1113.68 408.01">
  <defs>
    <style>
      .cls-1 {
        fill: #fff;
      }

      .cls-2 {
        fill: none;
      }
    </style>
  </defs>
  <path class="cls-1" d="M343.68,261.92v231.3l-56.92,5,1.66,10.28-14.76-9.29c-36.34-23.06-58.91-65-58.91-109.51,0-70.35,54.26-127.59,121.13-127.59h7.8Zm-15.6,216.86V278c-54.42,4.31-97.56,52.76-97.56,111.66,0,37.5,18.08,72.84,47.62,93.58Z" transform="translate(-126.32 -180.45)"/>
  <path class="cls-2" d="M395.11,349.2c-.16,0-.33.16-.49.33a44.3,44.3,0,0,1,1.32,4.31c.17.33.17.67.33.83l10.62-2.32c-4-1-8-2.16-11.78-3.15Z" transform="translate(-126.32 -180.45)"/>
  <path class="cls-2" d="M427.3,419.38a2,2,0,0,1,.17-1,37.66,37.66,0,0,1,.5-4.48v-.17a.54.54,0,0,1-.34-.16c-3-1.33-6.13-2.66-9-4-.49-.16-.83-.33-1.32-.49l9.29,10.78Z" transform="translate(-126.32 -180.45)"/>
  <path class="cls-2" d="M432.61,354.67v-1a5.52,5.52,0,0,1,.17-1.66,1.89,1.89,0,0,0-.5-1.33,1.8,1.8,0,0,0-1.33-.33c-1.82.33-3.81.83-5.64,1.16s-3.48.83-5.31,1.16L432.45,356C432.45,355.5,432.61,355.17,432.61,354.67Z" transform="translate(-126.32 -180.45)"/>
  <path class="cls-2" d="M431.45,368.94c.33-2.82.5-5.81.83-9v-.83l-2.65-.66c-5.15-1.33-10.46-2.82-15.77-4.32h-.5c-4.64,1-9.29,2-14.1,3.16l-2,.5c2.16,6.8,4.48,13.6,6.64,20.4.83,2.33,1.49,4.82,2.32,7.14,1.49,4.81,3.15,9.79,4.81,14.77a.51.51,0,0,0,.17.33h.16a1.26,1.26,0,0,1,.83.16l2-3.15c5.65-9,11.29-18.08,16.93-27A6.53,6.53,0,0,0,431.45,368.94Z" transform="translate(-126.32 -180.45)"/>
  <path class="cls-2" d="M407.89,313.19c-.17,0-.17.17-.33.17a2.06,2.06,0,0,0-.33.5l.16.16c1.33,1.49,2.66,2.82,3.82,4.32C410.21,316.68,409.05,314.85,407.89,313.19Z" transform="translate(-126.32 -180.45)"/>
  <path class="cls-2" d="M412.2,408.27c-.33,4.81-.83,9.45-1.16,13.93-.16,1.83-.33,3.65-.33,5.48v1l12.78-4.14v-.17a4.43,4.43,0,0,1,.49-2,.51.51,0,0,0,.17-.33l-.17-.33c-2.32-2.66-4.64-5.31-6.8-7.8C415.36,411.92,413.86,410.09,412.2,408.27Z" transform="translate(-126.32 -180.45)"/>
  <path class="cls-2" d="M377.53,306.39c-1.83-.17-3.66-.5-5.31-.66-4.48-.67-9.13-1.33-13.61-2,4.15,4.82,8.3,9.79,12.28,14.61l4.31,5.14c.83,1,1.66,2,2.66,3.15l2.82-19.74h-.17C379.18,306.72,378.35,306.55,377.53,306.39Z" transform="translate(-126.32 -180.45)"/>
  <path class="cls-2" d="M388.81,346.38a1.24,1.24,0,0,1,.33-.67c.17-.33.17-.33-.33-.83,0-.16-.17-.16-.17-.33-1.49-1.82-3-3.65-4.48-5.47-1.33-1.66-2.82-3.32-4.15-5l-1.66,12.28Z" transform="translate(-126.32 -180.45)"/>
  <path class="cls-2" d="M379.18,358.49h0c2-.33,3.32-.66,4.65-1,.17,0,.5-.33.66-.49,1.66-2.66,3.32-5.31,4.82-7.8H377.86l-1,6.8.5.5A10.88,10.88,0,0,0,379.18,358.49Z" transform="translate(-126.32 -180.45)"/>
  <path class="cls-2" d="M397.27,338.91l-1.33,3.48c-.16.17-.16.5-.33.67-.5,1.16-.83,1.82-.16,2.65,0,.17.16.17.16.33.17.34.17.34.33.34,2.33.66,4.65,1.32,7.14,1.82,3.15.83,6.63,1.83,9.79,2.66h.83c3.15-.67,6.3-1.33,9.29-2l1.49-.34c1.5-.33,3-.66,4.65-1l1.16-.17v-.16c-.66-.83-1.16-1.83-1.83-2.66-2-2.82-4-5.81-6.14-8.63-1.65-2.15-3.48-4.14-5.3-6.14-.83-.83-1.66-1.82-2.49-2.65l-8.63-9.62C403.08,324.64,400.26,331.78,397.27,338.91Z" transform="translate(-126.32 -180.45)"/>
  <path class="cls-2" d="M393.12,358.65c-2.49.5-4.81,1-7.3,1.66,0,0-.33.17-.33.34-.66.83-1.16,1.82-1.83,2.82-.66,1.16-1.49,2.32-2.32,3.65a.16.16,0,0,1-.16.16s0,.17.16.17c6.14,7.13,12.28,14.43,18.25,21.4l4.65,5.48c.83,1,1.82,2,2.65,3.15l-12.77-39.16C394.12,358.49,393.62,358.49,393.12,358.65Z" transform="translate(-126.32 -180.45)"/>
  <polygon class="cls-2" points="277.59 277.76 279.25 276.6 281.08 252.54 249.55 262.82 277.59 277.76"/>
  <path class="cls-2" d="M364.58,441.12a14.39,14.39,0,0,0-.66,2.82l4.31-1.33c-1-.5-2.15-1.16-3.15-1.66C364.75,441,364.75,441.12,364.58,441.12Z" transform="translate(-126.32 -180.45)"/>
  <path class="cls-2" d="M407.72,429.17c.34-5.31.83-10.78,1.16-16.09l.34-5.15c-14.44,10.29-29,20.74-42.65,30.53.34.17.5.34.83.5,1.33.67,2.66,1.5,4,2.16a.74.74,0,0,0,.83,0c6.3-2,12.77-4.15,18.91-6.14,5.31-1.83,10.62-3.48,15.93-5.14C407.72,429.5,407.72,429.5,407.72,429.17Z" transform="translate(-126.32 -180.45)"/>
  <path class="cls-2" d="M367.9,391.18h0c-.16,0-.33.16-.33.49,0,1.17-.17,2.33-.17,3.49,0,1-.16,1.82-.16,2.82-.17,4-.33,8-.67,11.95-.16,3.31-.33,6.8-.49,10.12l-.17,2.65c-.17,4.32-.5,8.8-.66,13.28v.16h0c7.3-5.14,14.76-10.45,21.9-15.76l1-.66,13.94-10,5.48-4c-.17-.33-.17-.5-.33-.67a1.94,1.94,0,0,0-.34-.49c-12.94-4.48-26.38-9-38.82-13.11C368.07,391.18,367.9,391.18,367.9,391.18Z" transform="translate(-126.32 -180.45)"/>
  <path class="cls-2" d="M374,366.45h-.17l-4.31,14.94c.5-.67.83-1.33,1.33-2,2.32-3.65,4.64-7.64,7-11.45h0a14.63,14.63,0,0,0-1.5-1.66A10.53,10.53,0,0,0,374,366.45Z" transform="translate(-126.32 -180.45)"/>
  <path class="cls-2" d="M392,350.52c-.83,1.17-1.49,2.33-2.32,3.49-.17.33-.5.66-.67,1l-1,1.5,5.47-1.16a.61.61,0,0,0-.16-.34A35.43,35.43,0,0,0,392,350.52Z" transform="translate(-126.32 -180.45)"/>
  <path class="cls-2" d="M379.85,361.64h0c-.33.83-.5,1.49-.83,2.32a.59.59,0,0,1-.17.34l.67.66,2.49-3.82C381.18,361.31,380.51,361.48,379.85,361.64Z" transform="translate(-126.32 -180.45)"/>
  <polygon class="cls-2" points="251.54 293.02 261.5 300.82 274.61 284.23 251.54 293.02"/>
  <path class="cls-2" d="M369.23,388.36h0l36.5,12.27L379.68,370.1c-4,6.31-7.3,11.62-10.78,17.09A3,3,0,0,0,369.23,388.36Z" transform="translate(-126.32 -180.45)"/>
  <path class="cls-2" d="M342.52,444.11h.33a32.53,32.53,0,0,1,4.31-1.5c.33-.16.5-.16.66-.83.83-3,2-6.47,3.16-9.95.16-.33,0-.33,0-.33l-.33-.34-11.45-9v17.92c1,1.17,2,2.49,3,3.65C342.35,444.11,342.52,444.11,342.52,444.11Z" transform="translate(-126.32 -180.45)"/>
  <path class="cls-2" d="M342.35,454.39a7.65,7.65,0,0,1-1.16-2v-.16h-2v8.62l3.32-6.3A.17.17,0,0,1,342.35,454.39Z" transform="translate(-126.32 -180.45)"/>
  <path class="cls-2" d="M424.65,427.35a1.32,1.32,0,0,0-.67.16c-4,1.33-8.46,2.82-13.27,4.32-.33.16-.33.16-.33.5a36.08,36.08,0,0,1-.33,4.14,3.58,3.58,0,0,1-.17,1.33c-.33,4.65-.66,9.46-1.16,14.1l-.17,1.17,16.1-25.72Z" transform="translate(-126.32 -180.45)"/>
  <path class="cls-2" d="M402.41,460.86c-9.29-5-18.91-9.95-28-14.93l-2.15-1.16c-.17,0-.17-.17-.34-.17s-.33.17-.66.17c-.66.17-1.49.5-2.16.66-1.82.67-3.65,1.16-5.47,1.83-.5.16-.5.33-.67.66-.66,3.15-1.66,7.14-2.65,11.12v.33h0l.17.17c5.3,4.15,9.95,7.8,14.43,11.28.17.17.17.17.5,0l11.94-4.48C392.46,464.68,397.44,462.69,402.41,460.86Z" transform="translate(-126.32 -180.45)"/>
  <path class="cls-2" d="M363.42,391.51c-4.64,1.33-14.93,4.48-24.22,7.46v19.25l12.77,10Z" transform="translate(-126.32 -180.45)"/>
  <path class="cls-2" d="M354.79,483.93a3.53,3.53,0,0,1-3.81-.33h-.33c-3.16.83-6.31,1.82-9.79,2.82l18.41,1.66Z" transform="translate(-126.32 -180.45)"/>
  <path class="cls-2" d="M362.76,388.69c.33-.17.83-.67.83-1l-.17-.16-3-3.82c-3.32-4.15-6.64-8.46-10-12.61l-.17-.17h-.16q-5.23,1.74-10.95,3.49v21.73c5.8-1.82,11.45-3.65,17.09-5.31Z" transform="translate(-126.32 -180.45)"/>
  <path class="cls-2" d="M339.2,475.63v8.13l9.79-2.82C345.67,479.12,342.52,477.46,339.2,475.63Z" transform="translate(-126.32 -180.45)"/>
  <path class="cls-2" d="M353.13,477.12h0c.34-1.49.67-3,1-4.31.66-3.15,1.49-6.47,2.49-9.79.5-1.82.33-2.49-1.16-3.48a52.83,52.83,0,0,1-4.81-3.65c-.5-.34-.83-.67-1.33-1a5.59,5.59,0,0,1-4,1l-6.14,11.28v4.65l11.45,6.3Z" transform="translate(-126.32 -180.45)"/>
  <path class="cls-2" d="M341.69,448.42a.59.59,0,0,1-.17-.33c-.33-.5-.33-.67-1.16-.33-.5.16-.83.33-1.33.49v.83h.33C341,449.25,341.52,449.08,341.69,448.42Z" transform="translate(-126.32 -180.45)"/>
  <path class="cls-2" d="M352.47,296.77a16.68,16.68,0,0,1,2.32-.67c.5-.16,1.17-.16,1.66-.33.33-.17.83-.33,1-.66,1.82-2.49,3.65-5,5.31-7.47.33-.5.66-1,1.16-1.66-1.33-.33-2.49-.83-3.82-1.16-4-1.33-8.13-2.49-12.11-4a21.81,21.81,0,0,0-8.79-1.5v13.94c2.32,1,4.48,1.83,6.8,2.82A7.67,7.67,0,0,0,352.47,296.77Z" transform="translate(-126.32 -180.45)"/>
  <path class="cls-2" d="M343.18,276.19c4.31-.33,8.79-.66,13.11-1L339.36,274v1.16a23.06,23.06,0,0,0,2.82.83C342.35,276.19,342.68,276.19,343.18,276.19Z" transform="translate(-126.32 -180.45)"/>
  <path class="cls-2" d="M343.84,298.76l-4.64-1.83v3c.33,0,.66-.17,1-.17Z" transform="translate(-126.32 -180.45)"/>
  <path class="cls-2" d="M346.83,366.45c-2.49-3.15-5.14-6.47-7.63-9.62V371.1l9-3Z" transform="translate(-126.32 -180.45)"/>
  <path class="cls-2" d="M439.25,337.58c.66,5.31,1.16,10.95,1.82,16.43a3.35,3.35,0,0,0,.67,1.33c.16.33.33.49.5.83a2.21,2.21,0,0,1,.49.66c.17.33.5.66.67,1a2.42,2.42,0,0,1,.33,1c.17.33.17.5.33.83,3.15,5.14,6.14,10.29,9.62,15.76l-15.26-45c0,.5.17,1,.17,1.66C438.75,333.77,439.08,335.76,439.25,337.58Z" transform="translate(-126.32 -180.45)"/>
  <path class="cls-2" d="M351.64,347.37l-10.95-7.8c-.17.5-.33.83-.5,1.33a13.46,13.46,0,0,0-.83,2.32v4.65c3.82,0,7.47-.17,11.12-.33Z" transform="translate(-126.32 -180.45)"/>
  <path class="cls-2" d="M350.81,367.12c0,.16.17.16.17.16h.16c.83-.33,1.66-.49,2.49-.83.33-.16.67-.16,1-.33l14.43-4.64a3.19,3.19,0,0,1,.17-1.17v-.16c0-.17-.33-.33-.66-.5h0c-1.66-1.16-3.49-2.49-5.15-3.65-2.49-1.83-5-3.48-7.46-5.31a3,3,0,0,0-1.17-.33h0c-5.47.16-11,.33-15.59.33v1.83c1.66,2.15,3.32,4.14,5,6.3C346.33,361.31,348.65,364.3,350.81,367.12Z" transform="translate(-126.32 -180.45)"/>
  <path class="cls-2" d="M350.48,301.58a3,3,0,0,0-2.32-.5c-3,.66-6,1.49-9,2.16v1.49c.83-.17,1.66-.5,2.49-.66C344.84,303.07,347.82,302.24,350.48,301.58Z" transform="translate(-126.32 -180.45)"/>
  <polygon class="cls-2" points="224.66 125.27 224.5 125.27 224.83 124.78 224.99 124.28 212.88 127.6 212.88 153.81 213.05 153.98 224.66 125.27"/>
  <path class="cls-2" d="M436.59,342.39l-.16-1a2.15,2.15,0,0,1,.16,1Z" transform="translate(-126.32 -180.45)"/>
  <path class="cls-2" d="M358.61,466.34c-.83,3.65-1.83,7.47-2.65,11.28-.17.33-.17.67,0,.67l15.92-6-12.27-9.62A17.47,17.47,0,0,0,358.61,466.34Z" transform="translate(-126.32 -180.45)"/>
  <path class="cls-2" d="M371.72,487.74c3.65-.83,7.3-1.49,11.11-2.15a4.77,4.77,0,0,0,3.16-1.83l-1.16-1c-3.32-2.49-6.64-5.15-10-7.8h-.33c-5.81,2.15-11.62,4.48-17.59,6.63a.17.17,0,0,0-.17.17l.17.17,1.49,1.32c2,1.66,4,3.49,6,5.31l2.82.17C368.57,488.41,370.22,488.08,371.72,487.74Z" transform="translate(-126.32 -180.45)"/>
  <path d="M365.25,489.07c.49-.16,1.16-.16,1.66-.33l-2.82-.17.49.5Z" transform="translate(-126.32 -180.45)"/>
  <polygon class="cls-2" points="255.36 308.45 251.87 309.28 254.53 309.45 255.36 308.45"/>
  <path class="cls-2" d="M357.78,457.71l2.16-9.12-1,.33c-2.65.83-5.14,1.66-7.63,2.49-.17.16-.17.66-.33,1,2,1.5,3.81,3.15,6,4.65A2.83,2.83,0,0,1,357.78,457.71Z" transform="translate(-126.32 -180.45)"/>
  <polygon class="cls-2" points="227.32 253.03 224.83 260.83 233.62 258.01 227.32 253.03"/>
  <path class="cls-2" d="M367.9,376.08c1-3.49,2-7.14,3.15-10.79v-.16a.61.61,0,0,1-.16-.34h0c-.33-.49-.5-.66-1.33-.33a11.89,11.89,0,0,0-1.33.5c-.16,0-.33.17-.49.17-4,1.32-8,2.65-12.12,3.81l-2.32.83c4,5.15,8.13,10.29,12.28,15.43C366.24,382.22,367.07,379.23,367.9,376.08Z" transform="translate(-126.32 -180.45)"/>
  <path class="cls-2" d="M360.6,435.15c.5.33.83.66,1.33,1,.5-.33.5-.5.5-1,.16-4.32.33-8.63.66-12.78,0-1.16.17-2.32.17-3.32.16-4,.49-8,.66-11.78l.5-9c-3.16,10.62-6.47,21.41-9.79,32v.17C356.62,432,358.78,433.65,360.6,435.15Z" transform="translate(-126.32 -180.45)"/>
  <path class="cls-2" d="M428.46,434a30.48,30.48,0,0,0-1-5.14h0a.17.17,0,0,1-.17.17v.16c-3.81,6.14-7.8,12.28-11.61,18.42l-1.5,2.32c4.65-5.14,9.46-10.28,14.11-15.43A.84.84,0,0,0,428.46,434Z" transform="translate(-126.32 -180.45)"/>
  <path class="cls-2" d="M371.39,356.83c.83-.33,1.49-.66,2-.83h0c.33-1.83.49-3.82.83-5.81v-.5l-13.28.34,10,7A1.25,1.25,0,0,1,371.39,356.83Z" transform="translate(-126.32 -180.45)"/>
  <path class="cls-2" d="M389.47,489.24c-.16,0-.5-.17-.66-.17h-.17l-.16.17c-.5.5-1,.83-1.5,1.32h.5Z" transform="translate(-126.32 -180.45)"/>
  <path d="M387.48,490.56H387l-1.16,1.17Z" transform="translate(-126.32 -180.45)"/>
  <path class="cls-2" d="M447.21,416.89a9.31,9.31,0,0,1,.17,2.16l3.32-9.62c-1.16,2.32-2.33,4.64-3.49,7.13C447.05,416.56,447.21,416.73,447.21,416.89Z" transform="translate(-126.32 -180.45)"/>
  <path class="cls-2" d="M455.84,384.37c-.16,0-.16-.16,0,0l-2.16-3.15c-3.81-5.64-7.63-11.45-11.44-17.09.66,11.28,1.49,22.23,2.15,33.68.17,1.66.17,3.32.33,5L456,389.52A4,4,0,0,1,455.84,384.37Z" transform="translate(-126.32 -180.45)"/>
  <path class="cls-2" d="M445.06,407.6c.16,1.66.16,3.32.33,5.31l7.13-14.27c-2.49,2.82-5,5.81-7.3,8.46C445.06,407.1,445.06,407.44,445.06,407.6Z" transform="translate(-126.32 -180.45)"/>
  <path class="cls-2" d="M394.12,485.26a2,2,0,0,1-.17,1l13.61-9c-4.48,2.49-8.8,5-13.28,7.63C394.12,484.92,394.12,484.92,394.12,485.26Z" transform="translate(-126.32 -180.45)"/>
  <path class="cls-2" d="M410.21,462.19c-.5,0-.66,0-.66.17A3.24,3.24,0,0,1,405.9,464h-.17c0,.16-.16.16-.16.33-2.49,4.15-5.15,8.29-7.64,12.61-.66,1.16-1.49,2.32-2.15,3.65l8.13-4.65c8.13-4.64,16.59-9.62,24.89-14.43l-10.29.5C415.52,462,412.87,462.19,410.21,462.19Z" transform="translate(-126.32 -180.45)"/>
  <path class="cls-2" d="M444.72,421.71h-.16V422c-.83,4.15-1.66,8.46-2.49,12.61l5-14.77a.17.17,0,0,1-.17.17A3.24,3.24,0,0,1,444.72,421.71Z" transform="translate(-126.32 -180.45)"/>
  <path class="cls-2" d="M431.62,450.91c-.17-.5-.17-1.16-.34-1.66l-2.15-11.78-19.42,21.4h0l.17.17h.17c5.8-.17,11.61-.33,17.42-.33H431v-.17a4,4,0,0,1,1.5-2.16h.16v-.33A27.42,27.42,0,0,1,431.62,450.91Z" transform="translate(-126.32 -180.45)"/>
  <path class="cls-2" d="M431.78,435c1,6.14,2.16,12.28,3.32,18.58,1.33-6.14,2.66-12.27,3.65-17.58.67-3.49,1.49-7,2.16-10.62l.33-1.16c-3.15,3.31-6.3,7-9.29,10.28A.6.6,0,0,0,431.78,435Z" transform="translate(-126.32 -180.45)"/>
  <path class="cls-2" d="M360.77,444.94a24.7,24.7,0,0,0,.83-3.65V441l-11,3.49-.5.16H350a15,15,0,0,0-.66,2.16l.16.17.5.49c.17.17.17.34.33.5.17,0,.17.17.34.17a88.61,88.61,0,0,0,10.12-3.15Z" transform="translate(-126.32 -180.45)"/>
  <path class="cls-2" d="M436.76,361c-.17-.67-.66-.67-1.66-.83h-.16l-.34,4.48c.83-1.33,1.5-2.49,2.16-3.65Z" transform="translate(-126.32 -180.45)"/>
  <polygon class="cls-2" points="310.78 176.05 309.12 173.56 308.95 176.38 310.28 176.71 310.78 176.05"/>
  <path class="cls-2" d="M431.78,399.14c-.33,4-.66,8.13-1,12.11v.17h0c.66.33,1.49.66,2.15,1,.83.34,1.66.67,2.33,1h.16c.5-.66,1.16-1.33,1.66-2,.83-1,1.66-2,2.49-2.82,1.83-1.83,2.32-3.32,1.83-5.31a7.32,7.32,0,0,1-.17-1.83v-.83q-1-16.42-2-32.85a36.25,36.25,0,0,0-.33-4.15v-1h-.17l-1,1.49c-1.17,1.83-2.33,3.65-3.49,5.64a5.83,5.83,0,0,0-.66,1.83,13.89,13.89,0,0,0-.17,2.65,3.35,3.35,0,0,1-.16,1.33c-.34,4.65-.83,9.29-1.17,13.94Z" transform="translate(-126.32 -180.45)"/>
  <path class="cls-2" d="M374.7,346.71h.17v-.17q.5-3.74,1-7.46c.33-2.49.66-5.15,1-7.8a1.78,1.78,0,0,0-.33-1c-2.16-2.65-4.31-5.14-6.31-7.63-.66-.83-1.32-1.49-2-2.32l-2.15-2.66c-3.32-4-6.81-8.29-10.29-12.28-.17-.16-.33-.16-.33-.33a3.14,3.14,0,0,0-1.16.17h-.17l-2.82,7.13c-3.15,7.8-6.31,15.93-9.46,23.73a.17.17,0,0,1,.17.17c1.66,1.16,3.48,2.48,5.14,3.65,3.15,2.32,6.47,4.48,9.62,6.8a1.86,1.86,0,0,0,.83.33c3,0,6.14-.17,9.13-.17C369.39,346.87,372.05,346.71,374.7,346.71Z" transform="translate(-126.32 -180.45)"/>
  <path class="cls-2" d="M405.4,305.39c.5.5.5.5.83.34a3.17,3.17,0,0,1,2.49,0,3.56,3.56,0,0,1,2,1.82,5.76,5.76,0,0,1,.33,1.66l13.28,2-24.39-11.45C401.58,301.58,403.58,303.57,405.4,305.39Z" transform="translate(-126.32 -180.45)"/>
  <path class="cls-2" d="M391.46,295.94c.17.33.5.49.67.83,2.49,2.82,5.14,5.8,7.63,8.79a4.26,4.26,0,0,0,3.32,1.82c-.83-1-1.83-1.82-2.66-2.82-2-2-4-4-5.8-6.14A11.69,11.69,0,0,0,391.46,295.94Z" transform="translate(-126.32 -180.45)"/>
  <polygon class="cls-2" points="315.75 230.14 312.27 234.28 314.59 235.28 315.92 234.28 315.75 230.14"/>
  <path class="cls-2" d="M430.12,419.72l3.16-3.66-2.82-1.16v.17a26.73,26.73,0,0,1-.34,3.82c-.16.66,0,.83,0,.83Z" transform="translate(-126.32 -180.45)"/>
  <path class="cls-2" d="M430.29,376.41l-2.49,4c-4.31,7-9,14.27-13.44,21.41a3.21,3.21,0,0,0-.17.82c0,.5.17.83.17,1.5v.33l13.44,5.81,2.82-34.68A2.62,2.62,0,0,1,430.29,376.41Z" transform="translate(-126.32 -180.45)"/>
  <path class="cls-2" d="M441.07,420.54c-.33-.49-.49-1-.83-1.49h0c-1.16-.5-2.48-1.16-3.81-1.66-1.16,1.33-2.16,2.66-3.32,3.82l-.5.66c1,2.66.5,4.65-1.82,6.31.16,1,.33,2.15.49,3.15Z" transform="translate(-126.32 -180.45)"/>
  <path class="cls-2" d="M414.69,317.51c2.49,3.81,5.15,7.63,7.63,11.61a107.64,107.64,0,0,0,11,13.77c.33-.16.49-.5.49-1.66V318.17a5.12,5.12,0,0,1-3.31-2.82h-.17c-6.8-1.16-13.11-2.32-19.08-3.32A49,49,0,0,0,414.69,317.51Z" transform="translate(-126.32 -180.45)"/>
  <path class="cls-2" d="M378.19,290.63c-1.33-.5-2.82-.83-4.15-1.33-2.32-.67-4.48-1.49-6.8-2.16h0c-1,1.49-2.16,3-3.15,4.48-.34.5-.83,1.16-1.17,1.66-.33.33-.49.83-.83,1.16h.17C367.57,293.11,372.88,292,378.19,290.63Z" transform="translate(-126.32 -180.45)"/>
  <path class="cls-2" d="M393.79,293c5.64,2.65,11.11,5.31,16.59,8L385.66,285c2.32,2.49,4.81,5,7.13,7.31A1.56,1.56,0,0,0,393.79,293Z" transform="translate(-126.32 -180.45)"/>
  <path class="cls-2" d="M380.84,304.07l1.33-9.46a4,4,0,0,1-1.33-1l-.16-.16h-.33l-1.5.33c-6.14,1.49-12.28,3-18.58,4.31a2.11,2.11,0,0,0-1.66,1.16c-.5.67-.66,1-.5,1.33Z" transform="translate(-126.32 -180.45)"/>
  <path class="cls-2" d="M365.74,283.33c1.5-1.83,2.83-4,4.48-6.31-5.47.5-11.11.83-16.59,1.33h-1c-.83,0-1.83.16-2.66.16,5.15,1.66,10.29,3.32,15.43,4.82C365.58,283.49,365.74,283.49,365.74,283.33Z" transform="translate(-126.32 -180.45)"/>
  <path class="cls-2" d="M395.45,305.73c-3.16-3.49-6.48-7.14-9.63-10.79a1.62,1.62,0,0,0-.5-.17h0v.17a12.51,12.51,0,0,1-.33,2.49c0,.33-.16.66-.16,1-.17,1.66-.5,3.32-.67,5.15l-.16,1,12.11,1.83Z" transform="translate(-126.32 -180.45)"/>
  <path class="cls-2" d="M380.35,288.14c.16-.17,0-.5-.34-1.16-1.66-2.16-3.15-4.48-4.64-6.81-.67-1.16-1.16-1.66-2-1.66h0l-4.32,6Z" transform="translate(-126.32 -180.45)"/>
  <path class="cls-2" d="M380.68,330.28c3.81,4.48,7.63,9.13,10.95,13.11a1,1,0,0,0,.66-.17c3.65-9,7.64-18.58,11.45-28.2v-.17l-4.48-5a3.55,3.55,0,0,0-.83-.49c-4.15-.67-8.29-1.17-12.28-1.83l-2.49-.33-.33,2.16c-1,6.63-1.82,13.44-2.82,20.24A1.67,1.67,0,0,0,380.68,330.28Z" transform="translate(-126.32 -180.45)"/>
  <path class="cls-1" d="M463.64,379.89c-.66-1.32-1.49-3-3.48-3.15h-.34a.51.51,0,0,0-.16-.33c-7.8-24.72-14.6-46.63-21.07-66.7,0-.5,0-.5.33-.83a4.85,4.85,0,0,0-.33-6.47,4.27,4.27,0,0,0-6.14.16l-.17.17-51.1-35.68c.66-2.65,0-4.64-2.16-5.64-1.33-.49-3.65-1-5.48,2.49l-30-2.15v3.15l16.43,1.16-12.61,1a2.19,2.19,0,0,1-1-.16c-1-.33-1.82-.66-2.82-1v4.32a20.64,20.64,0,0,1,8.46,1.66c3.82,1.49,7.8,2.82,11.78,4,1.16.33,2.49.83,3.65,1.16-.33.5-.66,1.16-1,1.66-1.66,2.49-3.32,5.14-5.15,7.63a1.52,1.52,0,0,1-1,.67,5.07,5.07,0,0,1-1.49.33,12,12,0,0,0-2.33.66c-1.82.83-3.81.66-6.3-.5-2.16-1-4.32-2-6.47-2.82v3.49l4.48,2-3.49.83c-.33,0-.66.16-1,.16v3.49c3-.67,5.8-1.5,8.62-2.16a2.79,2.79,0,0,1,2.16.5q-4,1.24-8.46,2.49c-.83.16-1.66.5-2.49.66v3.49l11.78-3.32-.16.5-.17.82h.17L344,327.3l-.17-.17v9c.33-.83.5-1.49.83-2.32.17-.5.33-.83.5-1.33l10.62,8.13h-1.16c-3.65,0-7.3.17-10.95.17v3c4.64-.16,9.79-.33,15.1-.33h0a1.79,1.79,0,0,1,1,.33c2.49,1.83,4.81,3.65,7.3,5.48,1.66,1.32,3.32,2.49,5,3.81h0c.17.17.5.34.66.5v.33a2.91,2.91,0,0,0-.16,1.16l-13.94,4.82c-.33.16-.66.16-1,.33-.83.33-1.65.5-2.48.83H355l-.17-.17c-2.15-3-4.31-6-6.47-8.79-1.49-2.16-3.15-4.32-4.81-6.47V350L351,360l1.32,1.83-8.79,3v3.32c3.65-1.16,7.14-2.49,10.45-3.65h.17l.17.17c3.15,4.31,6.47,8.79,9.62,13.11l3,4,.16.16a2.13,2.13,0,0,1-.83,1.17l-6.14,2.15-16.42,5.48v3.15c9-3.15,18.91-6.47,23.39-7.8l-10.95,38-12.28-10.29v4.15c3.65,3.15,7.47,6.14,11.12,9.29l.33.33v.34c-1.16,3.65-2.16,7.13-3,10.28a1.14,1.14,0,0,1-.66.83,31.14,31.14,0,0,0-4.15,1.5.23.23,0,0,1-.33,0s-.16,0-.33-.34c-1-1.32-2-2.49-2.82-3.81v8.29c.33-.16.83-.33,1.16-.49.83-.34.83-.17,1.16.33,0,.16.17.16.17.33-.33.66-.67,1-2.16.83H344v3.15h2v.17c.33.66.66,1.33,1,2,0,.16.16.16.16.33l-3.32,6.47v6.64l5.81-11.62a5.74,5.74,0,0,0,4-1,7,7,0,0,1,1.16,1,31.87,31.87,0,0,0,4.65,3.65c1.33,1,1.66,1.66,1.16,3.65-.83,3.32-1.66,6.81-2.32,10.13a35.68,35.68,0,0,0-.83,4.14v.17l-2.49,1L343.84,469v3.82l9.46,5.48-9.46,2.82v2.65h1.66c3.32-1,6.47-2,9.29-2.82h.34a3.25,3.25,0,0,0,3.65.33l4.31,4.15,4.65.5c-2-1.83-3.82-3.65-5.65-5.48l-1.49-1.32-.16-.17a.16.16,0,0,0,.16-.17c5.64-2.32,11.28-4.64,16.93-6.8h.33c3.15,2.66,6.47,5.31,9.62,8l1.16,1a4.25,4.25,0,0,1-3,2c-3.65.67-7.14,1.5-10.62,2.33-1.5.33-3.16.66-4.65,1l10.79,1,2.65.16,10.95,1c6.8-4.81,13.77-9.63,20.41-14.44,6.14-4.31,12.44-8.79,18.58-13.11.5-.33.67-.33,1-.16a3.89,3.89,0,0,0,4.48-1.83,4.24,4.24,0,0,0-.33-5.14c-.33-.33-.33-.33,0-1.16,2.82-9.13,5.8-18.09,8.63-27.21l4-12.78c2.82-8.79,5.64-17.75,8.46-26.55,0-.16.17-.33.17-.5a4.72,4.72,0,0,0,3.31-3.31l.17-.17v-2.16Zm-9.46-10.62c-3.15-5.64-6.3-10.95-9.29-16.09-.17-.17-.17-.5-.33-.83s-.17-.66-.33-1-.5-.66-.67-1a1.32,1.32,0,0,1-.33-.67c-.16-.33-.33-.49-.5-.82a3.31,3.31,0,0,1-.66-1.33c-.66-5.64-1.16-11.28-1.83-16.93-.16-2-.33-3.81-.66-5.8,0-.5-.17-1.17-.17-1.66Zm-44.8,56.25c-5.14,1.83-10.28,3.65-15.43,5.31-6,2.16-12.11,4.32-18.25,6.31h-.83c-1.33-.67-2.65-1.5-3.82-2.16-.33-.17-.49-.33-.83-.5,13.28-10.12,27.38-20.9,41.15-31.52l-.33,5.31c-.33,5.47-.83,11.11-1.16,16.59C409.88,425.19,409.88,425.36,409.38,425.52Zm.17,3.32-1.83,24.89-1.82,1.16-27-15.26ZM380.84,319.33c-.83-1.16-1.66-2.16-2.49-3.32l-4.14-5.31c-3.82-5-7.8-10.12-11.78-15.1,4.31.67,8.79,1.33,13.1,2,1.66.34,3.49.5,5.15.83a12.53,12.53,0,0,0,2.49.34h.16ZM387,332.11c1.5,1.82,2.82,3.65,4.32,5.64,0,.16.16.16.16.33.5.66.5.66.33,1-.16.16-.16.49-.33.66H381.34L383,327.13Zm-6,10.62H392c-1.49,2.65-3,5.31-4.65,8-.16.17-.33.5-.66.5-1.33.33-2.65.66-4.48,1H382c-.5-.49-1-1.16-1.66-1.82l-.5-.5Zm35.51-23.07a35.58,35.58,0,0,1,2.32,2.82c1.83,2,3.48,4.15,5.14,6.31a103.9,103.9,0,0,1,6,8.79c.66.83,1.16,1.83,1.82,2.66v.16l-1,.34-4.48,1-1.5.33c-3,.67-6,1.5-9,2.16H415c-3.15-.83-6.47-1.83-9.45-2.66-2.33-.66-4.48-1.32-6.81-2l-.33-.33c0-.16-.16-.16-.16-.33-.67-.83-.34-1.49.16-2.65.17-.17.17-.5.33-.67l1.33-3.48c2.82-7.3,5.64-14.77,8.3-22.07Zm-7-13.6c0-.17.16-.33.33-.5l.17-.17c1.16,1.83,2.15,3.49,3.31,5.31-1.32-1.49-2.48-3-3.81-4.64Zm15.76,111a.51.51,0,0,1,.17.33.49.49,0,0,1-.17.33,9.15,9.15,0,0,0-.5,2v.16l-12.27,4.32v-1c.16-1.83.33-3.65.33-5.64q.5-7,1-14.44c1.5,1.83,3,3.82,4.48,5.64C420.83,411.58,423,414.41,425.31,417.06ZM418.84,404a4.89,4.89,0,0,1,1.33.67c2.82,1.32,5.81,2.82,8.79,4.14a.51.51,0,0,0,.33.17v.17a45.22,45.22,0,0,0-.33,4.64,3.33,3.33,0,0,1-.16,1.16l-.83.34ZM414,395.32a1.54,1.54,0,0,0-.83-.16H413c0-.17,0-.17-.16-.33-1.5-5-3.16-10.12-4.65-15.1-.66-2.49-1.49-4.81-2.16-7.3-2.15-7-4.31-14.11-6.3-21.08l1.82-.49c4.65-1.17,9.13-2.16,13.61-3.16h.5c5,1.5,10.29,3,15.26,4.32l2.49.66v.83c-.16,3.32-.5,6.31-.66,9.13a3.18,3.18,0,0,1-.33,1.16C427,373.09,421.5,382.55,416,391.67ZM421.66,346c1.66-.33,3.49-.82,5.14-1.16,1.83-.49,3.66-.83,5.48-1.32a1.29,1.29,0,0,1,1.33.33,1.48,1.48,0,0,1,.33,1.49c0,.5-.17,1.16-.17,1.66v1.16c0,.5-.16,1-.16,1.5Zm-12.61-.33-10.29,2.49c-.16-.33-.16-.66-.33-.83a46.62,46.62,0,0,1-1.33-4.48c.17-.16.34-.33.5-.33h0C401.42,343.56,405.23,344.72,409.05,345.71Zm.33,46.46c-.83-1-1.66-2.16-2.49-3.15l-4.48-5.64c-5.8-7.3-11.78-14.77-17.58-22.07l-.17-.17a.16.16,0,0,1,.17-.16,40.85,40.85,0,0,0,2.15-3.65c.5-1,1.16-1.83,1.66-2.82l.33-.34c2.33-.66,4.65-1.16,7-1.65.5-.17.83-.17,1.33-.34Zm-26.71-33.35-.66-.66c0-.17.16-.33.16-.5a11.89,11.89,0,0,0,.66-2.32v-.17l2-.5ZM391,350a6.55,6.55,0,0,0,.82-1.5,3.61,3.61,0,0,1,.67-1c.66-1.16,1.49-2.49,2.16-3.65a38.73,38.73,0,0,1,1.32,4.64c0,.17,0,.34.17.34Zm-10.13,11.78h0c-2.32,4-4.64,8-6.8,11.78-.33.66-.83,1.33-1.16,2.16l4.31-15.27h.17c.83-.17,1.49-.17,2.16-.33A17.08,17.08,0,0,1,380.84,361.81Zm1.83,2.15,25.05,31.53-35.17-12.61h0c-.17-.33-.17-.83-.33-1.16C375.53,376.08,378.85,370.6,382.67,364Zm26.38,35.35a1.79,1.79,0,0,1,.33.49c.17.17.17.5.33.83l-5.3,4c-4.48,3.48-9,6.8-13.44,10.28l-1,.67c-7,5.31-14.1,10.78-21.07,16.09h0v-.16c.16-4.65.33-9.3.66-13.78l.17-2.65.49-10.45c.17-4.15.34-8.13.67-12.28,0-1,.16-2,.16-2.82,0-1.16.17-2.33.17-3.49,0-.33,0-.5.17-.5h.49C383.66,390.18,396.61,394.83,409.05,399.31Zm-37.5,39.49-4.15,1.49c.17-1,.5-2,.67-3a.6.6,0,0,0,.33-.16A17.76,17.76,0,0,1,371.55,438.8Zm39.33,9.62c.33-4.81.66-9.79,1-14.6a3.17,3.17,0,0,1,.17-1.33c.16-1.33.16-2.82.33-4.15,0-.33,0-.49.33-.49,4.81-1.66,9-3.16,12.78-4.48a1.23,1.23,0,0,1,.66-.17h0l-15.43,26.71Zm6.63-4.48c3.82-6.31,7.47-12.78,11.29-19.08v-.17a.16.16,0,0,1,.16-.16h0c.33,1.82.67,3.65.83,5.31,0,.16,0,.49-.16.49-4.48,5.31-9.13,10.62-13.61,15.93Zm11.78-38.49-13.1-6v-.33a5,5,0,0,1-.17-1.49c0-.33,0-.67.17-.83,4.31-7.3,8.62-14.77,12.94-22.07l2.49-4.15a3.35,3.35,0,0,1,.66-1Zm2.16,8.79a31.57,31.57,0,0,0,.33-4v-.17l2.66,1.33-3,3.82h0A1.74,1.74,0,0,1,431.45,414.24Zm2.16,3.15.5-.66c1-1.33,2.15-2.66,3.15-4a24.36,24.36,0,0,1,3.65,1.82h0c.33.5.5,1,.83,1.49l-9.46,11.12c-.17-1.16-.33-2.16-.5-3.32C434.11,422,434.77,420.05,433.61,417.39Zm8.13-6.3-2.32-1,3.31-4.31.17,4.31Zm-4-75.66h0a2.8,2.8,0,0,1-.17-1.17Zm-1.17,11.94,1.66,2.66-.49.66-1.33-.33Zm-.49,6.14h.16c1,.17,1.33.33,1.66,1h0a41,41,0,0,1-2.16,3.65ZM434.94,368c0-1,.16-1.83.16-2.82.17-.67.33-1.33.5-1.83,1.16-2,2.32-3.82,3.32-5.81a6.72,6.72,0,0,0,.83-1.49h.16v1c.17,1.32.17,2.82.33,4.31.67,11.28,1.33,22.57,1.83,33.85V396a7.88,7.88,0,0,0,.17,2c.49,2,0,3.65-1.83,5.47l-2.49,3a17.16,17.16,0,0,1-1.66,2h-.16c-.83-.33-1.5-.66-2.33-1a23.17,23.17,0,0,0-2.15-1h0v-.16c.33-4.15.66-8.47,1-12.62l.83-10.12c.33-4.81.67-9.45,1.16-14.27A1.74,1.74,0,0,0,434.94,368Zm-3.32-60.4a4.86,4.86,0,0,0,3.15,2.82V334.1c0,1.16,0,1.49-.33,1.66A96.69,96.69,0,0,1,424,321.65c-2.32-4-4.81-8.13-7.3-11.94-1.16-1.83-2.32-3.82-3.48-5.64,5.81,1,11.95,2.15,18.42,3.31C431.45,307.55,431.45,307.55,431.62,307.55ZM413,301.41a5.76,5.76,0,0,0-.33-1.66,3.87,3.87,0,0,0-2-2,3.26,3.26,0,0,0-2.49,0c-.33.17-.33.17-.83-.33-1.82-2-3.48-4-5.31-5.81l23.56,11.78Zm-7.63-2a4.48,4.48,0,0,1-3.15-2c-2.32-3-5-6.14-7.3-9-.17-.33-.5-.5-.67-.83a9,9,0,0,1,3,2.65c1.83,2.16,3.65,4.32,5.48,6.31C403.58,297.43,404.4,298.42,405.4,299.42Zm7-6.64c-5.31-2.65-10.62-5.47-16.1-8.13-.33-.16-.66-.5-1-.66-2.32-2.49-4.65-5-7-7.63ZM387,295.44c.17-1.83.5-3.49.67-5.31,0-.33.16-.67.16-1.16.17-.83.17-1.66.33-2.49v-.17h0a.59.59,0,0,1,.5.17c3.15,3.65,6.31,7.46,9.29,11.11l.5.67-11.61-1.83Zm-.49,4,2.32.33c4,.67,8,1.16,11.94,1.83a1.48,1.48,0,0,1,.83.49,62.93,62.93,0,0,1,4.32,5.15v.16c-3.82,10-7.63,19.75-11.12,29a1,1,0,0,1-.66.17c-3.15-4.15-7-8.8-10.46-13.44,0-.17-.16-.33-.16-.5.83-7,1.82-14.1,2.65-20.91Zm-10-29.7h0c.83,0,1.33.5,2,1.66,1.33,2.32,3,4.81,4.48,7.13.5.67.5.83.33,1.16L372.38,276Zm-22.4,0c.83,0,1.66-.17,2.65-.17l1-.16c5.14-.5,10.62-1,15.93-1.33-1.49,2.49-3,4.65-4.32,6.47a.16.16,0,0,0-.16.17C364.09,273.2,359.11,271.38,354.13,269.72ZM366.41,285c.33-.66.83-1.16,1.16-1.82,1-1.49,2-3,3-4.65h0c2.15.83,4.48,1.5,6.63,2.33,1.33.49,2.66.83,4,1.32-5.15,1.33-10.13,2.49-15.44,4h-.16C365.91,285.65,366.24,285.32,366.41,285Zm-4,6.14a2.11,2.11,0,0,1,1.66-1.16L382,285.48l1.49-.33h.33l.17.17a3.1,3.1,0,0,0,1.16,1l-1.33,9.63-21.9-3.49C361.76,292.12,361.93,291.79,362.43,291.12Zm-1.66,48.95c-3.16-2.32-6.31-4.64-9.29-7-1.66-1.32-3.32-2.49-5-3.81l-.17-.17c3.15-8.13,6.14-16.43,9.13-24.56l2.82-7.46h.16c.5,0,.83-.17,1.17-.17,0,0,.33.17.33.33,3.32,4.32,6.63,8.63,9.95,12.78l2,2.65a23.25,23.25,0,0,1,1.83,2.49c2,2.66,4.15,5.31,6.14,8a2.42,2.42,0,0,1,.33,1c-.33,2.66-.66,5.31-1,8-.33,2.49-.66,5.14-1,7.63v.17H378c-2.65,0-5.14.16-7.8.16-2.82,0-5.8.17-8.79.17A1,1,0,0,1,360.77,340.07Zm4.15,3.15,12.94-.33v.5c-.33,2-.5,4-.83,6h0l-2,1a.61.61,0,0,0-.34.16Zm-7.8,20.58,2.32-.83c4-1.33,7.8-2.66,11.61-4,.17,0,.34-.17.5-.17a11.18,11.18,0,0,1,1.33-.5c.83-.49,1-.33,1.33.33h0a.54.54,0,0,1,.16.34v.16c-1,3.65-2,7.47-3,11.12l-2.49,9.46C364.92,374.42,360.93,368.94,357.12,363.8ZM368.07,393c-.17,3-.33,6.14-.5,9.13-.17,4.15-.33,8.13-.66,12.28,0,1.16-.17,2.32-.17,3.48-.17,4.31-.5,8.79-.5,13.11a1,1,0,0,1-.5,1c-.33-.33-.83-.66-1.16-1-1.82-1.66-3.81-3.15-5.8-4.81V426C361.76,415.07,364.92,404,368.07,393Zm-10.46,36.34,6.14,5.14-8.46,2.82Zm-3,15.1c0-.17-.17-.33-.33-.5l-.5-.5-.17-.16a16.4,16.4,0,0,1,.67-2.33h.16l.5-.16c3.48-1.16,7.13-2.49,10.62-3.65v.33c-.33,1.33-.5,2.49-.83,3.82l-.17.16c-3.65,1.33-6.63,2.32-9.62,3.32C354.79,444.44,354.63,444.44,354.63,444.44Zm.5,4.31c0-.33.16-.66.16-1,2.49-.83,4.81-1.66,7.47-2.66l1-.33-2.15,9.29c-.34-.16-.5-.5-.83-.66Zm4.64,26.88v-.83c.83-3.81,1.83-7.8,2.66-11.61.33-1.16.49-2.49.83-3.65L375,469.49ZM378,468c-4.31-3.65-8.79-7.47-13.93-11.78l-.17-.17h0v-.33c1-4.15,1.82-8.3,2.49-11.45.16-.5.16-.66.66-.83a50.9,50.9,0,0,0,5.31-1.82c.67-.33,1.49-.5,2.16-.83.16,0,.33-.17.5-.17a.59.59,0,0,1,.33.17l2,1.16c9,5,18.09,10.29,27,15.43-4.81,2-9.62,4-14.6,5.81-3.81,1.49-7.63,3.15-11.61,4.64C378.19,468.16,378.19,468.16,378,468Zm12.45,10.62-9.46-8,22.23-9.12Zm6,5.14c0-.33.17-.66.17-1s0-.34.16-.5c4.32-2.66,8.46-5.15,12.78-7.8ZM405.9,473l-7.8,4.81c.66-1.16,1.49-2.49,2.16-3.65l7.46-12.94a.59.59,0,0,1,.17-.34h.17a2.7,2.7,0,0,0,3.48-1.65c.17-.17.17-.17.66-.17,2.49-.17,5.15-.17,7.64-.33l10-.5C421.83,463.19,413.7,468.16,405.9,473Zm27.71-19.91a3,3,0,0,0-1.5,2.15v.17h-3.48c-5.48.16-11.12.16-16.76.5h-.16a.17.17,0,0,0-.17-.17h0l18.75-22.07,2,12.12c.17.66.17,1.16.33,1.82.33,1.66.67,3.48.83,5.14.33,0,.33.17.17.34C433.77,452.9,433.61,452.9,433.61,453.07Zm8.29-32c-.66,3.65-1.49,7.3-2.15,10.95-1,5.48-2.33,11.78-3.65,18.09-1.16-6.47-2.16-12.94-3.16-19.08,0-.17,0-.33.17-.33,3-3.65,6.14-7.14,9-10.62Zm1,9.46c.83-4.31,1.66-8.63,2.32-12.94v-.33h.17a3.73,3.73,0,0,0,2.16-1.66s0-.17.16-.17ZM448,414.41a3.22,3.22,0,0,0-.16-2.16v-.5c1.16-2.49,2.15-4.81,3.32-7.3Zm-2-6.31c-.16-2-.16-3.65-.33-5.31v-.5c2.32-2.82,4.65-5.8,7.13-8.79Zm-.66-10.45c-.17-1.83-.17-3.49-.33-5.15-.67-11.61-1.33-23.06-2-34.67,3.65,5.8,7.46,11.78,11.11,17.58l2,3.16a.16.16,0,0,0,.17.16,4.75,4.75,0,0,0,.17,5.31Z" transform="translate(-126.32 -180.45)"/>
  <path d="M340.86,486.42h-.67v-.83l-1.16.16v1.33A11.89,11.89,0,0,1,340.86,486.42Z" transform="translate(-126.32 -180.45)"/>
  <path class="cls-1" d="M396.61,487.74,383,571.54H368.07v16.92H309V571.54H290.41l-13.6-83.8,53.76-4.64v-1l6.14.5,6.14-.5v1.16Zm-16.1,30.2,3.32-20.41-47.29-4.14h-.16l-47,4.14.66,3.65Zm-4.15,25.72,3-17.92-87.94-16.09,3.15,19.08Zm-2.82,16.76,1.5-9.13-79.32-14.6,3.82,23.73ZM360.1,580.5v-9.13H316.63v9.13Z" transform="translate(-126.32 -180.45)"/>
  <path class="cls-1" d="M319.78,382.22A23.44,23.44,0,0,0,301.86,360a22.76,22.76,0,0,0-25.71,12.28C269,386.2,278.8,404,294.4,405c4.48.33,8.79.5,13.44.66v78h11.94V405.78h10.46V393.33H319.62C319.78,389.52,320,385.87,319.78,382.22ZM308.17,393.5c-4.81,0-9.13.33-13.44-.17-5.31-.49-9.29-5.8-9.13-11.45s4.48-10.12,10.46-10.78a11.37,11.37,0,0,1,11.61,8.3,18.18,18.18,0,0,1,.5,3Z" transform="translate(-126.32 -180.45)"/>
  <g>
    <polygon class="cls-1" points="199.61 45.96 209.06 0 218.52 45.96 199.61 45.96"/>
    <polygon class="cls-1" points="80.47 110.17 57.08 73.34 93.75 96.73 80.47 110.17"/>
    <polygon class="cls-1" points="50.61 201.6 0 192.14 50.61 182.68 50.61 201.6"/>
    <polygon class="cls-1" points="109.34 315.09 69.03 341.97 96.07 301.65 109.34 315.09"/>
  </g>
  <path class="cls-1" d="M559.05,328.62h83.79V432.33H559.05Zm23.89,23.73v28.54l28.54-28.54Zm36,30.36-25.56,25.72h25.72Z" transform="translate(-126.32 -180.45)"/>
  <path class="cls-1" d="M744.38,329h23.73v80h16.1V329H808.1v80h16.09V329h23.73V432.82H744.05V329Z" transform="translate(-126.32 -180.45)"/>
  <path class="cls-1" d="M863.19,329H947V432.66h-23.9V412.75H886.91v19.91H863.19Zm23.72,23.73v36.17h36.17V352.68Z" transform="translate(-126.32 -180.45)"/>
  <path class="cls-1" d="M960.75,329h83.79v23.73H1015v79.81H991.28V352.68H960.75Z" transform="translate(-126.32 -180.45)"/>
  <path class="cls-1" d="M1058.31,329h83.79v23.73h-29.53v79.81h-23.73V352.68h-30.53Z" transform="translate(-126.32 -180.45)"/>
  <path class="cls-1" d="M1156.21,329h83.62l.17,23.73h-59.9v16.1H1240v63.71h-83.79V408.76h59.9V392.5h-59.9Z" transform="translate(-126.32 -180.45)"/>
  <rect class="cls-1" x="390.75" y="148.5" width="23.73" height="103.7"/>
  <rect class="cls-1" x="534.77" y="148.17" width="23.73" height="103.7"/>
  <path class="cls-1" d="M516.07,478.62h26.55l7.8,7.8V513.3l-7.8,7.79H516.07Zm9.63,9.79v23.06h14.76V488.41Z" transform="translate(-126.32 -180.45)"/>
  <path class="cls-1" d="M556.23,478.62h34.34v9.79H566V495h16.42v9.79H566.35v6.64h24.22v9.79H556.23Z" transform="translate(-126.32 -180.45)"/>
  <path class="cls-1" d="M596.38,478.62h34.35v9.79H606.17V495h24.56v26.22H596.38v-9.79h24.56v-6.64H596.38Z" transform="translate(-126.32 -180.45)"/>
  <path class="cls-1" d="M636.37,478.62h34.34v42.64h-9.79v-8.13H646.16v8.13h-9.79Zm9.79,9.79v14.76h14.76V488.41Z" transform="translate(-126.32 -180.45)"/>
  <path class="cls-1" d="M676.52,478.62h34.35v26.21H700.25l10.62,10.62v5.81h-9.79l-14.77-14.93v14.93h-9.79Zm9.79,9.79V495h14.77v-6.63Z" transform="translate(-126.32 -180.45)"/>
  <path class="cls-1" d="M716.67,478.62H751v26.21H740.57l10.62,10.62v5.81H741.4l-14.77-14.93v14.93h-9.79V478.62Zm9.79,9.79V495h14.77v-6.63Z" transform="translate(-126.32 -180.45)"/>
  <path class="cls-1" d="M756.83,478.62h34.34v42.64H756.83Zm9.79,9.79v23.06h14.77V488.41Z" transform="translate(-126.32 -180.45)"/>
  <path class="cls-1" d="M796.82,478.62h9.79v32.85h24.55v9.79H796.82Z" transform="translate(-126.32 -180.45)"/>
  <path class="cls-1" d="M837.14,478.62h9.79v32.85h24.55v9.79H837.14Z" transform="translate(-126.32 -180.45)"/>
  <path class="cls-1" d="M877.29,478.62h34.35v42.64H877.29Zm9.79,9.79v23.06h14.77V488.41Z" transform="translate(-126.32 -180.45)"/>
  <path class="cls-1" d="M928.39,521.26V478.62h9.79v32.85h6.64V478.62h9.79v32.85h6.64V478.62H971v32.85l-7.14,9.79Z" transform="translate(-126.32 -180.45)"/>
  <path class="cls-1" d="M976.84,478.62h34.35v9.79H986.63V495h16.43v9.79H987v6.64h24.22v9.79H976.84Z" transform="translate(-126.32 -180.45)"/>
  <path class="cls-1" d="M1017.16,478.62h34.35l.17,17.92-3.16,3.15,3.16,3.15v18.25h-34.35V478.62Zm9.79,9.79V495h14.77v-6.63Zm0,16.26v6.64h14.77v-6.64Z" transform="translate(-126.32 -180.45)"/>
  <rect class="cls-1" x="389.26" y="269.96" width="724.43" height="11.45"/>
</svg>
