<?xml version="1.0" encoding="utf-8"?>
<!-- Generator: Adobe Illustrator 25.2.1, SVG Export Plug-In . SVG Version: 6.00 Build 0)  -->
<svg version="1.1" id="Capa_1" xmlns="http://www.w3.org/2000/svg" xmlns:xlink="http://www.w3.org/1999/xlink" x="0px" y="0px"
	 viewBox="0 0 200 200" style="enable-background:new 0 0 200 200;" xml:space="preserve">
<style type="text/css">
	.st0{fill:#FFFFFF;}
</style>
<g>
	<path class="st0" d="M64.6,23.9c-0.7,0-1.3-0.2-1.8-0.5s-0.9-0.8-1.2-1.3l1.2-0.5c0.3,0.5,0.7,0.9,1.4,1.1c0.6,0.2,1.3,0.2,2.1-0.2
		c0.8-0.3,1.3-0.8,1.6-1.4c0.3-0.6,0.3-1.2,0-1.8c-0.2-0.5-0.5-0.8-0.9-1s-0.8-0.3-1.2-0.3c-0.4,0-1,0.1-1.7,0.2
		c-0.8,0.1-1.5,0.2-2,0.2c-0.5,0-1-0.1-1.5-0.4c-0.5-0.3-0.9-0.8-1.2-1.5c-0.3-0.6-0.3-1.2-0.2-1.7c0.1-0.6,0.4-1.1,0.8-1.6
		s1-0.9,1.7-1.2c1-0.5,2-0.6,2.8-0.3c0.9,0.2,1.5,0.7,2,1.5l-1.2,0.5c-0.3-0.4-0.7-0.7-1.3-0.9c-0.6-0.2-1.2-0.1-2,0.2
		c-0.7,0.3-1.2,0.7-1.5,1.3c-0.3,0.6-0.3,1.1,0,1.8c0.2,0.5,0.5,0.8,0.9,1s0.8,0.3,1.2,0.3c0.4,0,1-0.1,1.7-0.2
		c0.8-0.1,1.5-0.2,2-0.2c0.5,0,1,0.1,1.5,0.4s0.9,0.8,1.2,1.4c0.2,0.5,0.3,1.1,0.2,1.7c-0.1,0.6-0.3,1.2-0.7,1.7
		c-0.4,0.5-1,1-1.8,1.3C66,23.8,65.3,24,64.6,23.9z"/>
	<path class="st0" d="M69.8,12c0.2-1.1,0.7-2,1.5-2.7C72,8.5,72.9,7.9,74,7.6c1.3-0.4,2.5-0.4,3.6,0c1.1,0.4,2,1,2.8,2.1l-1.4,0.4
		c-0.6-0.7-1.3-1.2-2.1-1.4c-0.8-0.3-1.7-0.2-2.7,0c-0.9,0.2-1.6,0.7-2.2,1.3s-1,1.3-1.1,2.2c-0.2,0.9-0.1,1.8,0.2,2.8
		c0.3,1,0.7,1.8,1.3,2.5c0.6,0.6,1.3,1.1,2.1,1.3s1.6,0.2,2.5-0.1c1-0.3,1.8-0.7,2.3-1.4c0.6-0.6,0.9-1.4,1-2.3l1.4-0.4
		c-0.1,1.2-0.6,2.3-1.3,3.2c-0.8,0.9-1.8,1.5-3.1,1.9c-1.1,0.3-2.1,0.3-3.2,0.1c-1-0.3-1.9-0.8-2.7-1.5s-1.3-1.7-1.6-2.9
		C69.6,14.1,69.6,13,69.8,12z"/>
	<path class="st0" d="M91.3,16.9l-3.7-4.7l-2.2,0.3l0.7,5.1l-1.2,0.2L83.2,5.6l3.6-0.5c1.4-0.2,2.4,0,3.2,0.5
		c0.8,0.6,1.3,1.4,1.4,2.4c0.1,0.9,0,1.7-0.4,2.4c-0.4,0.7-1.1,1.2-2.1,1.5l3.8,4.7L91.3,16.9z M85.2,11.5l2.4-0.3
		c0.9-0.1,1.6-0.5,2-1c0.4-0.5,0.6-1.2,0.5-2c-0.1-0.8-0.4-1.4-0.9-1.8C88.7,6.1,88,6,87,6.1l-2.4,0.3L85.2,11.5z"/>
	<path class="st0" d="M97,15.7c-0.9-0.5-1.6-1.3-2.1-2.3c-0.5-1-0.8-2-0.7-3.2C94.2,9,94.4,8,95,7c0.5-0.9,1.3-1.7,2.2-2.2
		c0.9-0.5,2-0.8,3.1-0.7c1.1,0,2.2,0.3,3.1,0.8c0.9,0.5,1.6,1.3,2.1,2.3c0.5,1,0.8,2,0.7,3.2s-0.3,2.3-0.8,3.2s-1.3,1.7-2.2,2.2
		c-0.9,0.5-2,0.8-3.1,0.7C99,16.6,97.9,16.3,97,15.7z M102.6,14.9c0.7-0.4,1.3-1,1.7-1.8c0.4-0.8,0.7-1.7,0.7-2.7c0-1-0.2-2-0.6-2.7
		c-0.4-0.8-1-1.4-1.7-1.8c-0.7-0.4-1.5-0.7-2.4-0.7c-0.9,0-1.7,0.2-2.5,0.6c-0.7,0.4-1.3,1-1.7,1.8c-0.4,0.8-0.7,1.7-0.7,2.7
		c0,1,0.2,2,0.6,2.8c0.4,0.8,1,1.4,1.7,1.8c0.7,0.4,1.5,0.7,2.4,0.7C101,15.5,101.8,15.3,102.6,14.9z"/>
	<path class="st0" d="M109.4,16l4.4,0.5l-0.1,1l-5.6-0.7l1.5-12.2l1.2,0.2L109.4,16z"/>
	<path class="st0" d="M116.5,17.1l4.3,0.9l-0.2,1l-5.5-1.2l2.5-12l1.2,0.3L116.5,17.1z"/>
	<path class="st0" d="M137.4,12.5c0.7,0.8,1.1,1.7,1.3,2.8s0,2.2-0.5,3.3c-0.5,1.2-1.1,2.1-1.9,2.8c-0.8,0.7-1.8,1-2.8,1.1
		c-1.1,0.1-2.3-0.1-3.5-0.6l-3.4-1.3L131,9.2l3.4,1.3C135.7,11.1,136.6,11.7,137.4,12.5z M134.3,21.2c1.2-0.5,2-1.5,2.6-3
		c0.6-1.5,0.6-2.8,0.2-4c-0.5-1.2-1.5-2.1-3.1-2.7l-2.2-0.9l-3.8,9.5l2.2,0.9C131.8,21.6,133.2,21.7,134.3,21.2z"/>
	<path class="st0" d="M139.9,25.8c-0.5-0.9-0.8-1.9-0.8-3c0-1.1,0.3-2.2,1-3.2c0.6-1,1.4-1.8,2.3-2.4c0.9-0.6,1.9-0.8,3-0.8
		s2.1,0.3,3.1,0.9c1,0.6,1.7,1.3,2.3,2.3s0.8,1.9,0.7,3s-0.3,2.2-1,3.2c-0.6,1-1.4,1.8-2.3,2.4s-1.9,0.8-3,0.8
		c-1.1,0-2.1-0.3-3.1-0.9C141.2,27.5,140.5,26.7,139.9,25.8z M145.2,27.8c0.8,0,1.6-0.2,2.4-0.7c0.8-0.5,1.4-1.1,1.9-2
		c0.5-0.9,0.8-1.8,0.8-2.7s-0.2-1.7-0.6-2.4c-0.4-0.7-1-1.3-1.8-1.8c-0.8-0.5-1.6-0.7-2.4-0.7s-1.6,0.2-2.4,0.7
		c-0.8,0.5-1.4,1.1-1.9,2s-0.8,1.8-0.8,2.7c0,0.9,0.2,1.7,0.6,2.4c0.4,0.7,1,1.3,1.8,1.8S144.3,27.8,145.2,27.8z"/>
	<path class="st0" d="M168.2,32.3l-10.6,7.1l-1-0.9l4.4-9.9l-9.2,5.9l-1-0.9l5.4-11.5l1,0.9l-4.8,10l9.4-6.1l1,0.9l-4.7,10.2
		l9.1-6.3L168.2,32.3z"/>
	<path class="st0" d="M167,49.9l-0.8-0.9l3.5-11.8l-7.9,6.6l-0.8-0.9l9.4-7.9l0.8,0.9l-3.5,11.8l7.9-6.6l0.8,0.9L167,49.9z"/>
	<path class="st0" d="M176.3,65.2c0-0.7,0.2-1.3,0.5-1.8c0.3-0.5,0.8-0.9,1.3-1.2l0.5,1.2c-0.5,0.3-0.9,0.7-1.1,1.3
		c-0.2,0.6-0.2,1.3,0.2,2.2c0.3,0.8,0.8,1.3,1.4,1.6c0.6,0.3,1.2,0.3,1.8,0c0.5-0.2,0.8-0.5,1-0.9s0.3-0.8,0.3-1.2
		c0-0.4-0.1-1-0.2-1.7c-0.1-0.8-0.2-1.5-0.2-2c0-0.5,0.1-1,0.4-1.5c0.3-0.5,0.8-0.9,1.5-1.2c0.6-0.2,1.2-0.3,1.7-0.2
		c0.6,0.1,1.1,0.4,1.6,0.8c0.5,0.4,0.9,1,1.2,1.7c0.4,1,0.5,2,0.3,2.9c-0.2,0.9-0.7,1.5-1.5,1.9l-0.5-1.2c0.4-0.3,0.7-0.7,0.9-1.3
		c0.2-0.6,0.1-1.2-0.2-2c-0.3-0.7-0.7-1.2-1.3-1.5c-0.6-0.3-1.1-0.3-1.8,0c-0.5,0.2-0.8,0.5-1,0.9c-0.2,0.4-0.3,0.8-0.3,1.2
		c0,0.4,0.1,1,0.2,1.7c0.1,0.8,0.2,1.5,0.2,2c0,0.5-0.1,1-0.4,1.5c-0.3,0.5-0.8,0.9-1.4,1.2c-0.5,0.2-1.1,0.3-1.7,0.2
		c-0.6-0.1-1.2-0.3-1.7-0.8c-0.5-0.4-1-1-1.3-1.8C176.4,66.6,176.3,65.9,176.3,65.2z"/>
	<path class="st0" d="M188.3,70.5c1.1,0.3,2,0.8,2.7,1.5s1.3,1.6,1.6,2.7c0.4,1.3,0.4,2.5,0,3.6c-0.4,1.1-1.1,2-2.1,2.8l-0.4-1.4
		c0.7-0.6,1.2-1.2,1.5-2.1c0.3-0.8,0.3-1.7,0-2.7c-0.2-0.9-0.7-1.6-1.3-2.2c-0.6-0.6-1.3-1-2.2-1.2c-0.9-0.2-1.8-0.1-2.8,0.1
		c-1,0.3-1.8,0.7-2.5,1.3c-0.6,0.6-1.1,1.3-1.3,2.1c-0.2,0.8-0.2,1.6,0,2.5c0.3,1,0.7,1.8,1.4,2.3c0.6,0.6,1.4,0.9,2.3,1l0.4,1.4
		c-1.2-0.1-2.3-0.6-3.2-1.3c-0.9-0.8-1.5-1.8-1.9-3.1c-0.3-1.1-0.3-2.1,0-3.2c0.3-1,0.8-1.9,1.6-2.7c0.8-0.8,1.7-1.3,2.9-1.6
		S187.2,70.2,188.3,70.5z"/>
	<path class="st0" d="M183.2,91.9l4.7-3.7l-0.3-2.2l-5.1,0.7l-0.2-1.2l12.2-1.6l0.5,3.7c0.2,1.4,0,2.4-0.6,3.2
		c-0.6,0.8-1.4,1.2-2.4,1.4c-0.9,0.1-1.7,0-2.3-0.5s-1.2-1.1-1.5-2.1l-4.8,3.8L183.2,91.9z M188.6,85.8l0.3,2.5c0.1,1,0.4,1.6,1,2.1
		c0.5,0.4,1.2,0.6,2,0.5c0.8-0.1,1.4-0.4,1.8-0.9s0.5-1.3,0.4-2.3l-0.3-2.4L188.6,85.8z"/>
	<path class="st0" d="M184.3,97.7c0.5-0.9,1.3-1.6,2.3-2.1c1-0.5,2-0.8,3.2-0.7c1.2,0,2.3,0.3,3.2,0.9c0.9,0.5,1.7,1.3,2.2,2.2
		c0.5,0.9,0.8,2,0.7,3.1c0,1.1-0.3,2.2-0.8,3.1s-1.3,1.6-2.3,2.1c-1,0.5-2,0.8-3.2,0.7c-1.2,0-2.3-0.3-3.2-0.8
		c-0.9-0.5-1.7-1.3-2.2-2.2s-0.8-2-0.7-3.1C183.4,99.6,183.7,98.6,184.3,97.7z M185.1,103.2c0.4,0.7,1,1.3,1.8,1.7
		c0.8,0.4,1.7,0.7,2.7,0.7c1,0,2-0.2,2.7-0.6s1.4-1,1.8-1.7c0.4-0.7,0.7-1.5,0.7-2.4s-0.2-1.7-0.6-2.5c-0.4-0.7-1-1.3-1.8-1.7
		c-0.8-0.4-1.7-0.7-2.7-0.7s-2,0.2-2.8,0.6c-0.8,0.4-1.4,1-1.8,1.7c-0.4,0.7-0.7,1.5-0.7,2.4S184.7,102.5,185.1,103.2z"/>
	<path class="st0" d="M184,110l-0.6,4.4l-1-0.1l0.7-5.6l12.2,1.6l-0.2,1.2L184,110z"/>
	<path class="st0" d="M182.8,117.2l-0.9,4.3l-1-0.2l1.2-5.5l12,2.6l-0.3,1.2L182.8,117.2z"/>
	<path class="st0" d="M187.2,138c-0.8,0.7-1.8,1.1-2.8,1.3c-1,0.1-2.2,0-3.3-0.5c-1.2-0.5-2.1-1.1-2.7-1.9c-0.7-0.8-1-1.8-1.1-2.9
		c-0.1-1.1,0.1-2.2,0.6-3.5l1.4-3.4l11.4,4.6l-1.4,3.4C188.7,136.3,188,137.3,187.2,138z M178.5,134.9c0.5,1.2,1.5,2.1,3,2.7
		c1.5,0.6,2.8,0.7,4,0.2c1.2-0.5,2.1-1.5,2.7-3.1l0.9-2.2l-9.5-3.9l-0.9,2.2C178.1,132.4,178.1,133.8,178.5,134.9z"/>
	<path class="st0" d="M173.9,140.5c0.9-0.5,1.9-0.8,3-0.7c1.1,0,2.2,0.4,3.2,1c1,0.6,1.8,1.4,2.4,2.3c0.5,0.9,0.8,2,0.8,3
		c0,1.1-0.3,2.1-0.9,3.1c-0.6,1-1.3,1.7-2.3,2.3c-0.9,0.5-1.9,0.8-3,0.7c-1.1,0-2.1-0.4-3.2-1c-1-0.6-1.8-1.4-2.4-2.3
		c-0.5-0.9-0.8-1.9-0.8-3c0-1.1,0.3-2.1,0.9-3.1C172.2,141.7,173,141,173.9,140.5z M171.9,145.7c0,0.8,0.2,1.6,0.7,2.4
		c0.5,0.8,1.1,1.4,2,1.9c0.9,0.5,1.8,0.8,2.7,0.9c0.9,0,1.7-0.1,2.4-0.5c0.7-0.4,1.3-1,1.8-1.8s0.7-1.6,0.7-2.4s-0.2-1.6-0.7-2.4
		c-0.5-0.8-1.1-1.4-2-1.9c-0.9-0.5-1.8-0.8-2.7-0.9c-0.9,0-1.7,0.1-2.4,0.5c-0.7,0.4-1.3,1-1.8,1.8
		C172.1,144,171.9,144.9,171.9,145.7z"/>
	<path class="st0" d="M167.2,168.7l-7-10.7l0.9-1l9.9,4.5l-5.8-9.2l0.9-1l11.5,5.5l-0.9,1l-10-4.9l6.1,9.4l-0.9,1l-10.1-4.7l6.3,9.2
		L167.2,168.7z"/>
	<path class="st0" d="M149.6,167.4l0.9-0.8l11.8,3.6l-6.6-7.9l0.9-0.8l7.8,9.4l-0.9,0.8l-11.8-3.6l6.6,7.9l-0.9,0.8L149.6,167.4z"/>
	<path class="st0" d="M134.2,176.6c0.7,0,1.3,0.2,1.8,0.5s0.9,0.8,1.2,1.3l-1.2,0.5c-0.3-0.5-0.7-0.9-1.3-1.1
		c-0.6-0.2-1.3-0.2-2.2,0.2c-0.8,0.3-1.3,0.8-1.6,1.4s-0.3,1.2,0,1.8c0.2,0.5,0.5,0.8,0.9,1s0.8,0.3,1.2,0.3c0.4,0,1-0.1,1.7-0.2
		c0.8-0.1,1.5-0.2,2-0.2s1,0.2,1.5,0.4c0.5,0.3,0.9,0.8,1.2,1.5c0.2,0.6,0.3,1.2,0.2,1.8c-0.1,0.6-0.4,1.1-0.8,1.6s-1,0.9-1.7,1.2
		c-1,0.4-2,0.5-2.9,0.3c-0.9-0.2-1.5-0.7-1.9-1.5l1.2-0.5c0.3,0.4,0.7,0.7,1.3,0.9c0.6,0.2,1.2,0.1,2-0.2c0.7-0.3,1.2-0.7,1.5-1.3
		s0.3-1.1,0.1-1.8c-0.2-0.5-0.5-0.8-0.9-1c-0.4-0.2-0.8-0.3-1.2-0.3c-0.4,0-1,0.1-1.7,0.1c-0.8,0.1-1.5,0.1-2,0.1
		c-0.5,0-1-0.2-1.5-0.4c-0.5-0.3-0.9-0.8-1.2-1.5c-0.2-0.5-0.3-1.1-0.2-1.7c0.1-0.6,0.3-1.1,0.8-1.7s1-0.9,1.8-1.3
		C132.9,176.7,133.6,176.6,134.2,176.6z"/>
	<path class="st0" d="M128.9,188.5c-0.3,1.1-0.8,2-1.5,2.7c-0.7,0.7-1.7,1.3-2.7,1.6c-1.3,0.4-2.5,0.3-3.6,0c-1.1-0.4-2-1.1-2.8-2.1
		l1.4-0.4c0.6,0.7,1.2,1.2,2,1.5s1.7,0.3,2.7,0c0.9-0.2,1.6-0.6,2.2-1.2c0.6-0.6,1-1.3,1.2-2.2c0.2-0.9,0.2-1.8-0.1-2.8
		c-0.3-1-0.7-1.8-1.3-2.5c-0.6-0.7-1.3-1.1-2.1-1.3c-0.8-0.2-1.6-0.2-2.5,0c-1,0.3-1.8,0.7-2.3,1.3c-0.6,0.6-0.9,1.4-1.1,2.3
		l-1.4,0.4c0.1-1.2,0.6-2.3,1.4-3.2c0.8-0.9,1.8-1.5,3.1-1.8c1.1-0.3,2.1-0.3,3.2,0c1,0.3,1.9,0.8,2.7,1.6c0.8,0.8,1.3,1.8,1.6,2.9
		C129.1,186.3,129.1,187.4,128.9,188.5z"/>
	<path class="st0" d="M107.5,183.3l3.6,4.7l2.2-0.3l-0.6-5.1l1.2-0.1l1.5,12.2l-3.7,0.4c-1.4,0.2-2.4,0-3.2-0.6
		c-0.8-0.6-1.2-1.4-1.4-2.4c-0.1-0.9,0.1-1.7,0.5-2.3s1.1-1.2,2.1-1.5l-3.8-4.8L107.5,183.3z M113.5,188.7L111,189
		c-1,0.1-1.6,0.4-2.1,1c-0.4,0.5-0.6,1.2-0.5,2c0.1,0.8,0.4,1.4,0.9,1.8c0.5,0.4,1.3,0.5,2.3,0.4l2.4-0.3L113.5,188.7z"/>
	<path class="st0" d="M101.7,184.3c0.9,0.5,1.6,1.3,2.1,2.3c0.5,1,0.8,2,0.7,3.2c0,1.2-0.3,2.3-0.8,3.2c-0.5,0.9-1.3,1.7-2.2,2.2
		c-0.9,0.5-2,0.8-3.1,0.7c-1.1,0-2.2-0.3-3.1-0.8s-1.6-1.3-2.1-2.3c-0.5-1-0.8-2-0.7-3.2c0-1.2,0.3-2.3,0.8-3.2
		c0.5-0.9,1.3-1.7,2.2-2.2c0.9-0.5,2-0.8,3.1-0.7C99.8,183.4,100.8,183.7,101.7,184.3z M96.1,185.1c-0.7,0.4-1.3,1-1.7,1.8
		c-0.4,0.8-0.7,1.7-0.7,2.7c0,1,0.2,2,0.6,2.7c0.4,0.8,1,1.4,1.7,1.8s1.5,0.7,2.4,0.7s1.7-0.2,2.5-0.6c0.7-0.4,1.3-1,1.7-1.8
		c0.4-0.8,0.7-1.7,0.7-2.7s-0.2-2-0.6-2.8c-0.4-0.8-1-1.4-1.7-1.8c-0.7-0.4-1.5-0.7-2.4-0.7S96.9,184.7,96.1,185.1z"/>
	<path class="st0" d="M89.3,183.9l-4.4-0.6l0.1-1l5.6,0.8L89,195.2l-1.2-0.2L89.3,183.9z"/>
	<path class="st0" d="M82.2,182.7l-4.3-1l0.2-1l5.5,1.2l-2.7,12l-1.2-0.3L82.2,182.7z"/>
	<path class="st0" d="M61.3,186.9c-0.7-0.8-1.1-1.8-1.2-2.8c-0.1-1.1,0.1-2.2,0.6-3.3c0.5-1.2,1.1-2.1,2-2.7s1.8-1,2.9-1.1
		c1.1-0.1,2.2,0.1,3.5,0.7l3.4,1.4l-4.7,11.3l-3.4-1.4C63,188.4,62.1,187.7,61.3,186.9z M64.5,178.3c-1.2,0.5-2.1,1.5-2.7,2.9
		c-0.6,1.5-0.7,2.8-0.2,4c0.5,1.2,1.5,2.1,3.1,2.8l2.2,0.9l3.9-9.4l-2.2-0.9C67,177.9,65.7,177.8,64.5,178.3z"/>
	<path class="st0" d="M59,173.6c0.5,0.9,0.7,1.9,0.7,3c0,1.1-0.4,2.1-1,3.2c-0.6,1-1.4,1.8-2.4,2.3s-2,0.8-3,0.8
		c-1.1,0-2.1-0.3-3.1-0.9c-1-0.6-1.7-1.4-2.2-2.3c-0.5-0.9-0.7-1.9-0.7-3c0-1.1,0.4-2.1,1-3.2c0.6-1,1.4-1.8,2.4-2.4
		c0.9-0.5,1.9-0.8,3-0.8c1.1,0,2.1,0.3,3.1,0.9C57.7,171.9,58.5,172.7,59,173.6z M53.8,171.5c-0.8,0-1.6,0.2-2.4,0.7
		c-0.8,0.5-1.4,1.1-2,2c-0.5,0.9-0.8,1.8-0.9,2.7c0,0.9,0.1,1.7,0.5,2.4c0.4,0.7,1,1.3,1.8,1.8c0.8,0.5,1.6,0.7,2.4,0.7
		s1.6-0.2,2.4-0.7c0.8-0.5,1.4-1.1,2-2c0.5-0.9,0.8-1.8,0.9-2.7c0.1-0.9-0.1-1.7-0.5-2.4s-1-1.3-1.8-1.8
		C55.4,171.8,54.6,171.5,53.8,171.5z"/>
	<path class="st0" d="M30.8,166.7l10.7-6.9l1,0.9l-4.6,9.9l9.3-5.8l1,0.9l-5.6,11.5l-1-0.9l5-9.9l-9.5,6l-1-0.9l4.8-10.1l-9.2,6.2
		L30.8,166.7z"/>
	<path class="st0" d="M32.3,149.1l0.8,1l-3.7,11.8l8-6.5l0.8,1l-9.5,7.7l-0.8-1l3.7-11.8l-8,6.5l-0.8-1L32.3,149.1z"/>
	<path class="st0" d="M23.2,133.7c0,0.7-0.2,1.3-0.5,1.8c-0.3,0.5-0.8,0.9-1.3,1.2l-0.5-1.2c0.5-0.3,0.9-0.7,1.2-1.3
		c0.2-0.6,0.2-1.3-0.2-2.2c-0.3-0.8-0.8-1.3-1.3-1.6c-0.6-0.3-1.2-0.3-1.8-0.1c-0.5,0.2-0.8,0.5-1,0.9c-0.2,0.4-0.3,0.8-0.3,1.2
		c0,0.4,0.1,1,0.1,1.7c0.1,0.8,0.2,1.5,0.1,2c0,0.5-0.2,1-0.4,1.5c-0.3,0.5-0.8,0.9-1.5,1.2c-0.6,0.2-1.2,0.3-1.8,0.2
		c-0.6-0.1-1.1-0.4-1.6-0.8c-0.5-0.4-0.9-1-1.2-1.7c-0.4-1-0.5-2-0.3-2.9c0.2-0.9,0.8-1.5,1.5-1.9l0.5,1.2c-0.4,0.3-0.7,0.7-0.9,1.3
		c-0.2,0.6-0.1,1.2,0.2,2c0.3,0.7,0.7,1.2,1.2,1.5c0.5,0.3,1.1,0.3,1.8,0.1c0.5-0.2,0.8-0.5,1-0.8c0.2-0.4,0.3-0.8,0.3-1.2
		c0-0.4,0-1-0.1-1.7c-0.1-0.8-0.1-1.5-0.1-2c0-0.5,0.2-1,0.4-1.5s0.8-0.9,1.5-1.1c0.5-0.2,1.1-0.3,1.7-0.2s1.1,0.3,1.7,0.8
		s0.9,1,1.2,1.8C23.1,132.3,23.2,133,23.2,133.7z"/>
	<path class="st0" d="M11.3,128.2c-1.1-0.3-2-0.8-2.7-1.5s-1.3-1.7-1.5-2.8c-0.3-1.3-0.3-2.5,0.1-3.6c0.4-1.1,1.1-2,2.1-2.7l0.4,1.4
		c-0.7,0.5-1.2,1.2-1.5,2s-0.3,1.7,0,2.7c0.2,0.9,0.6,1.6,1.2,2.2c0.6,0.6,1.3,1,2.2,1.2c0.9,0.2,1.8,0.2,2.8-0.1s1.8-0.7,2.5-1.3
		c0.7-0.6,1.1-1.3,1.3-2.1c0.2-0.8,0.2-1.6,0-2.5c-0.3-1-0.7-1.8-1.3-2.3s-1.4-0.9-2.3-1.1l-0.4-1.4c1.2,0.1,2.3,0.6,3.2,1.4
		s1.5,1.8,1.8,3.2c0.3,1.1,0.3,2.1,0,3.2c-0.3,1-0.8,1.9-1.6,2.6c-0.8,0.7-1.8,1.3-2.9,1.6C13.5,128.5,12.4,128.5,11.3,128.2z"/>
	<path class="st0" d="M16.7,106.9l-4.7,3.6l0.3,2.2l5.1-0.6l0.1,1.2l-12.2,1.4l-0.4-3.7c-0.2-1.4,0.1-2.4,0.6-3.2
		c0.6-0.8,1.4-1.2,2.4-1.3c0.9-0.1,1.7,0.1,2.3,0.5c0.7,0.4,1.2,1.1,1.5,2.1l4.8-3.7L16.7,106.9z M11.2,112.8l-0.3-2.5
		c-0.1-1-0.4-1.6-0.9-2.1c-0.5-0.4-1.2-0.6-1.9-0.5c-0.8,0.1-1.4,0.4-1.8,0.9c-0.4,0.5-0.5,1.3-0.4,2.3l0.3,2.4L11.2,112.8z"/>
	<path class="st0" d="M15.7,101.1c-0.6,0.9-1.3,1.6-2.3,2.1c-1,0.5-2,0.8-3.3,0.7c-1.2,0-2.3-0.3-3.2-0.9c-0.9-0.6-1.7-1.3-2.2-2.2
		c-0.5-0.9-0.8-2-0.7-3.1c0-1.1,0.3-2.2,0.9-3.1c0.6-0.9,1.3-1.6,2.3-2.1c1-0.5,2-0.7,3.3-0.7c1.2,0,2.3,0.3,3.2,0.9
		c0.9,0.5,1.7,1.3,2.2,2.2s0.8,2,0.7,3.1C16.6,99.1,16.3,100.2,15.7,101.1z M15,95.5c-0.4-0.7-1-1.3-1.8-1.8
		c-0.8-0.4-1.7-0.7-2.7-0.7c-1,0-2,0.2-2.7,0.6c-0.8,0.4-1.4,1-1.8,1.7c-0.4,0.7-0.7,1.5-0.7,2.4c0,0.9,0.2,1.7,0.6,2.5
		s1,1.3,1.8,1.8c0.8,0.4,1.7,0.7,2.7,0.7c1,0,2-0.2,2.8-0.6c0.8-0.4,1.4-1,1.9-1.7s0.7-1.5,0.7-2.4C15.6,97.1,15.4,96.3,15,95.5z"/>
	<path class="st0" d="M16.2,88.7l0.6-4.4l1,0.1L17,90.1L4.9,88.3l0.2-1.2L16.2,88.7z"/>
	<path class="st0" d="M17.5,81.6l1-4.3l1,0.2L18.2,83L6.2,80.2L6.5,79L17.5,81.6z"/>
	<path class="st0" d="M13.4,60.7c0.8-0.7,1.8-1.1,2.8-1.2s2.2,0.1,3.3,0.6c1.2,0.5,2.1,1.2,2.7,2s1,1.8,1.1,2.9s-0.2,2.2-0.7,3.5
		l-1.4,3.3L9.9,67l1.4-3.3C11.9,62.4,12.6,61.4,13.4,60.7z M22,63.9c-0.5-1.2-1.4-2.1-2.9-2.7c-1.5-0.6-2.8-0.7-4-0.2
		c-1.2,0.5-2.1,1.5-2.8,3.1l-0.9,2.2l9.4,4l0.9-2.2C22.4,66.5,22.5,65.1,22,63.9z"/>
	<path class="st0" d="M26.7,58.4c-0.9,0.5-2,0.7-3,0.7s-2.1-0.4-3.2-1c-1-0.6-1.8-1.4-2.3-2.4s-0.8-2-0.7-3c0-1.1,0.3-2.1,0.9-3
		c0.6-1,1.4-1.7,2.3-2.2c0.9-0.5,2-0.7,3-0.7c1.1,0.1,2.1,0.4,3.2,1c1,0.6,1.8,1.4,2.3,2.4s0.8,2,0.8,3c0,1.1-0.4,2.1-1,3.1
		C28.4,57.2,27.6,57.9,26.7,58.4z M28.8,53.2c0-0.8-0.2-1.6-0.6-2.4c-0.4-0.8-1.1-1.4-2-2c-0.9-0.5-1.8-0.8-2.7-0.9
		c-0.9-0.1-1.7,0.1-2.4,0.5c-0.7,0.4-1.3,1-1.8,1.8c-0.5,0.8-0.7,1.6-0.8,2.4c0,0.8,0.2,1.6,0.6,2.4s1.1,1.4,2,2
		c0.9,0.5,1.8,0.8,2.7,0.9c0.9,0.1,1.7-0.1,2.4-0.5c0.7-0.4,1.3-1,1.8-1.8C28.6,54.9,28.8,54.1,28.8,53.2z"/>
	<path class="st0" d="M33.8,30.3L40.7,41l-0.9,1l-9.8-4.7l5.7,9.3l-0.9,1l-11.4-5.6l0.9-1l9.9,5.1l-5.9-9.5l0.9-1l10,4.9L33,31.3
		L33.8,30.3z"/>
	<path class="st0" d="M51.4,31.9l-1,0.8l-11.7-3.8l6.5,8l-1,0.8l-7.7-9.6l1-0.8l11.7,3.8l-6.4-8l1-0.8L51.4,31.9z"/>
</g>
</svg>
